<svg width="800" height="474" viewBox="0 0 800 474" fill="none" xmlns="http://www.w3.org/2000/svg">
<path opacity="0.2" fill-rule="evenodd" clip-rule="evenodd" d="M800 0H0V474H800V0ZM390.55 35.5532C414.719 33.0774 438.749 34.8372 461.597 40.3988C457.109 37.3103 455.816 31.52 458.777 26.9496C461.473 23.1394 466.049 21.686 470.358 22.9214C536.079 39.9726 592.47 85.9195 618.484 151.835C662.081 262.582 603.585 388.072 487.346 432.276C376.66 474.053 253.814 426.719 204.729 325.998C204.669 325.776 204.551 325.569 204.433 325.363C204.315 325.156 204.197 324.949 204.137 324.727L204.017 324.283C203.005 321.458 203.212 318.547 204.989 315.933C207.969 311.334 214.348 310.115 219.076 312.905C221.119 314.028 222.355 315.842 223.126 317.779C267.777 409.445 379.551 452.58 480.278 414.4C508.809 403.603 533.536 387.337 553.636 367.368C533.567 387.201 508.908 403.354 480.45 414.117C402.705 443.574 318.091 424.639 263.154 372.118L262.862 371.958C262.686 371.767 262.452 371.591 262.218 371.415C261.984 371.239 261.75 371.063 261.575 370.872L261.806 370.81C259.515 367.849 259.362 363.606 261.655 360.141C264.635 355.542 271.013 354.323 275.742 357.113L276.034 357.273C276.064 357.384 276.137 357.425 276.21 357.465C276.283 357.505 276.356 357.545 276.386 357.656C276.97 357.977 277.613 358.52 278.025 359.125C291.861 372.159 307.733 382.879 324.943 390.991C321.102 387.795 320.133 382.43 322.913 378.14C325.549 374.108 330.82 372.47 335.249 374.149C359.582 385.434 386.842 390.789 414.572 389.305C413.46 389.075 412.387 388.594 411.281 387.986C406.723 384.912 405.395 379.078 408.375 374.478C410.496 371.297 414.256 369.584 418.093 369.993C431.733 368.987 445.297 365.86 458.844 360.834C496.3 346.839 524.403 319.382 539.684 286.764C554.965 254.146 557.364 216.144 543.229 180.393C529.325 144.579 501.273 117.998 467.637 103.847C434.001 89.6968 394.55 88.0385 357.154 102.256C340.019 108.711 324.883 117.968 312.029 129.236C308.749 132.725 303.066 133.759 298.861 131.068C294.304 127.995 292.975 122.16 295.955 117.56C296.874 116.364 297.853 115.39 299.123 114.577C310.619 104.637 323.546 96.0636 337.911 89.3101C335.162 90.0332 332.167 89.6477 329.502 88.182C324.945 85.1086 323.616 79.2738 326.596 74.6743C327.97 72.4054 330.512 70.7784 333.121 70.3232L343.191 66.2203C358.017 60.5828 373.102 56.9005 388.144 55.0431C386.826 54.8396 385.522 54.3387 384.261 53.6451C379.704 50.5718 378.375 44.7369 381.355 40.1375C383.476 36.9561 387.005 35.3049 390.55 35.5532ZM559.818 330.401C539.174 359.274 509.619 382.774 473.211 396.524C457.256 402.548 440.954 406.309 424.709 407.964C441.01 406.312 457.385 402.533 473.443 396.463C509.763 382.819 539.231 359.349 559.818 330.401Z" fill="#240A3A"/>
</svg>
