<svg width="539" height="179" viewBox="0 0 539 179" fill="none" xmlns="http://www.w3.org/2000/svg">
<g clip-path="url(#clip0)">
<path d="M212.3 107C211.6 107.7 210.7 108.1 209.7 108.1C208.7 108.1 207.8 107.7 207.1 107C206.4 106.3 206 105.4 206 104.4V67.7L175.6 106.7C174.8 107.5 173.9 108 172.8 108C172.3 108 171.8 107.9 171.4 107.7C171 107.5 170.6 107.3 170.2 106.9C169.9 106.6 169.6 106.2 169.4 105.8C169.2 105.4 169.1 104.9 169.1 104.4V57.2C169.1 56.2 169.5 55.4 170.2 54.6C170.9 53.9 171.8 53.5 172.8 53.5C173.8 53.5 174.6 53.9 175.4 54.6C176.1 55.3 176.5 56.2 176.5 57.2V94L207 54.9C207.8 54 208.7 53.6 209.8 53.6C210.3 53.6 210.8 53.7 211.2 53.9C211.6 54.1 212 54.3 212.3 54.7C212.6 55 212.9 55.4 213.1 55.9C213.3 56.3 213.4 56.8 213.4 57.3V104.6C213.4 105.4 213 106.3 212.3 107Z" fill="#191346"/>
<path d="M171.3 146.5C169.5 145.1 166.9 145.5 165.5 147.3C165.3 147.5 165.2 147.8 165.1 148C163.2 150.9 160.9 153.6 158.4 156C155 159.2 151.2 162 147 164.2C135.4 170.3 121.6 172 108.1 167.9C96.2999 164.3 86.7999 156.8 80.4999 147.2C80.3999 146.9 80.1999 146.7 80.0999 146.5C78.6999 144.7 76.0999 144.3 74.2999 145.7C72.4999 147.1 72.0999 149.5 73.2999 151.6C73.2999 151.7 73.3999 151.8 73.3999 151.8C76.6999 156.9 80.8999 161.3 85.6999 165.2C85.9999 165.4 86.2999 165.6 86.4999 165.8C91.8999 170 98.0999 173.4 105 175.6C106.1 175.9 107.2 176.2 108.3 176.5C108.4 176.5 108.6 176.6 108.7 176.6C118.5 179.1 129.1 179.4 139.5 176.3C146.7 174.2 153.2 170.8 158.7 166.5C158.9 166.3 159.2 166.1 159.5 165.9C164.3 162.1 168.4 157.5 171.8 152.5C171.8 152.4 171.9 152.4 171.9 152.3C173.5 150.5 173.2 147.9 171.3 146.5Z" fill="#85C441"/>
<path d="M529.6 75.3C525.4 36.3 495.6 6.30001 458.8 0.200012C457.4 -0.299988 455.8 1.21593e-05 454.6 1.10001C452.9 2.70001 452.8 5.30001 454.3 7.10001C455 7.80001 455.8 8.30001 456.7 8.40001C490.2 13.7 517.4 40.9 521.2 76.3C523.5 97.5 517 117.5 504.6 132.9C492.2 148.3 474 158.9 452.9 161.1C421.9 164.4 393.2 148.8 378.3 123.6C378.2 123.3 378 123 377.8 122.8C377.8 122.7 377.7 122.7 377.7 122.6L377.6 122.5C376 120.8 373.3 120.6 371.6 122.2C370.3 123.4 369.9 125.2 370.5 126.7H370.4C370.5 126.9 370.7 127.1 370.8 127.3L370.9 127.4C387.3 155.6 419.3 173 453.8 169.3C500.7 164.3 534.6 122.2 529.6 75.3Z" fill="#842990"/>
<path d="M537.9 74.5C534.6 43.9 516.9 18.3 492.3 3.80003C490.7 2.80003 488.7 2.90003 487.2 4.20003C485.5 5.80003 485.4 8.40003 486.9 10.2C487.3 10.7 487.8 11 488.3 11.2C510.5 24.5 526.4 47.6 529.4 75.4C531.9 98.8 524.7 121 511 138.1C497.3 155.1 477.1 166.9 453.7 169.4C409 174.2 368.7 143.6 360.7 100.1C360.6 99.2 360.3 98.3 359.6 97.6C358 95.9 355.3 95.7 353.6 97.3C352.6 98.2 352.2 99.4 352.3 100.7C352.3 100.8 352.3 100.8 352.3 100.9C352.3 101.1 352.4 101.3 352.4 101.5C361.2 149.3 405.5 182.9 454.6 177.7C506.2 172.1 543.4 125.9 537.9 74.5Z" fill="#EC008C"/>
<path d="M521.3 76.2C516.7 33.9 478.8 3.19998 436.4 7.79998C434.9 7.99998 433.4 8.19998 431.9 8.39998C430.8 8.29998 429.6 8.69998 428.8 9.49998C427.1 11.1 427 13.7 428.5 15.5C429.5 16.5 430.8 17 432.1 16.9V17C433.8 16.7 435.6 16.4 437.3 16.2C456.2 14.2 474 20 487.7 31C501.4 42 510.9 58.3 512.9 77.1C514.9 96 509.1 113.8 498.1 127.5C487.1 141.2 470.8 150.7 452 152.7C432.3 154.8 413.6 148.4 399.7 136.3C398.1 135.1 395.8 135.2 394.3 136.6C392.6 138.2 392.5 140.8 394 142.6C394.3 142.9 394.6 143.1 394.9 143.3C410.4 156.4 431.1 163.4 452.8 161.1C495.2 156.6 525.9 118.6 521.3 76.2Z" fill="#F68A22"/>
<path d="M513 77.1C508.9 39.3 475 12 437.3 16.1C428.7 17 420.7 19.5 413.4 23.2C412.8 23.4 412.3 23.7 411.8 24.1C410.1 25.7 410 28.3 411.5 30.1C412.9 31.7 415.3 31.9 417 30.8C423.4 27.5 430.5 25.3 438.1 24.5C454.7 22.7 470.4 27.8 482.4 37.5C494.4 47.2 502.8 61.5 504.5 78.1C506.3 94.7 501.2 110.4 491.5 122.4C481.8 134.4 467.5 142.8 450.9 144.5C444.9 145.1 439.1 144.9 433.5 143.8C432 143.2 430.3 143.5 429.1 144.6C427.4 146.2 427.3 148.8 428.8 150.6C429.3 151.1 429.8 151.5 430.4 151.7V151.8C437.3 153.2 444.4 153.6 451.8 152.8C489.8 148.8 517.1 114.9 513 77.1Z" fill="#85C441"/>
<path d="M304.3 33.3C304.2 32.6 303.9 32.1 303.5 31.6L303.6 31.5C298.5 26.9 292.7 22.9 286.1 19.9C252.3 4.40001 212.3 19.3 196.8 53.1C193.5 60.4 191.6 68 190.9 75.5L202.5 60.6C203 59.2 203.6 57.8 204.2 56.4C216.2 30.1 245.1 16.8 272.2 23.5C272.7 23.6 273.1 23.7 273.5 23.9C276.6 24.7 279.7 25.8 282.7 27.2C288 29.6 292.8 32.8 297 36.5C297.9 37.7 299.5 38.4 301.1 38C303.3 37.7 304.7 35.5 304.3 33.3Z" fill="#842990"/>
<path d="M204.2 56.5C203.6 57.9 203 59.3 202.5 60.7L207 54.9C207.8 54 208.7 53.6 209.8 53.6C210.3 53.6 210.8 53.7 211.2 53.9C211.6 54.1 212 54.3 212.3 54.7C212.6 55 212.9 55.4 213.1 55.9C213.2 56.2 213.3 56.5 213.3 56.8C224.4 36.4 247.9 26.3 270 31.7C270.7 32 271.5 32.1 272.4 31.9C274.6 31.4 276.1 29.2 275.6 27C275.3 25.7 274.5 24.7 273.4 24.1C273 23.9 272.6 23.8 272.1 23.7C245 17 216.2 30.2 204.2 56.5Z" fill="#F68A22"/>
<path d="M54.5 80.8C54.5 88.3 51.8 94.7 46.5 100.1C41.2 105.4 34.8 108.1 27.3 108.1C19.8 108.1 13.3 105.4 8 100.1C2.7 94.8 0 88.4 0 80.8C0 73.3 2.7 66.9 8 61.6C13.3 56.3 19.8 53.6 27.3 53.6C34.8 53.6 41.2 56.3 46.5 61.6C49.2 64.3 51.2 67.2 52.5 70.4C53.8 73.5 54.5 77 54.5 80.8ZM27.2 60.8C24.4 60.8 21.8 61.3 19.5 62.3C17.2 63.3 15 64.8 13 66.7C11 68.6 9.6 70.8 8.6 73.1C7.6 75.4 7.2 78 7.2 80.8C7.2 86.3 9.2 91.1 13.1 95C17 98.9 21.7 100.9 27.3 100.9C32.9 100.9 37.6 98.9 41.5 95C45.4 91.1 47.4 86.4 47.4 80.8C47.4 75.3 45.4 70.6 41.5 66.7C37.5 62.8 32.8 60.8 27.2 60.8Z" fill="#191346"/>
<path d="M101.5 53.6C102 53.6 102.5 53.7 102.9 53.9C103.3 54.1 103.7 54.3 104.1 54.7C104.4 55 104.7 55.4 104.9 55.9C105.1 56.3 105.2 56.8 105.2 57.3V104.6C105.2 105.1 105.1 105.6 104.9 106C104.7 106.4 104.5 106.8 104.1 107.1C103.8 107.4 103.4 107.7 102.9 107.9C102.5 108.1 102 108.2 101.5 108.2C101 108.2 100.5 108.1 100.1 107.9C99.7 107.7 99.3 107.5 99 107.1C98.7 106.8 98.4 106.4 98.2 106C98 105.6 97.9 105.1 97.9 104.6V60.8H73.6V104.4C73.6 104.9 73.5 105.4 73.3 105.8C73.1 106.2 72.9 106.6 72.5 106.9C72.2 107.2 71.8 107.5 71.3 107.7C70.9 107.9 70.4 108 69.9 108C69.4 108 68.9 107.9 68.5 107.7C68.1 107.5 67.7 107.3 67.4 106.9C67.1 106.6 66.8 106.2 66.6 105.8C66.4 105.4 66.3 104.9 66.3 104.4V57.2C66.3 56.7 66.4 56.2 66.6 55.8C66.8 55.4 67 55 67.4 54.6C67.7 54.3 68.1 54 68.5 53.8C68.9 53.6 69.4 53.5 69.9 53.5H101.5V53.6Z" fill="#191346"/>
<path d="M154.4 60.8H141V104.4C141 105.4 140.6 106.2 139.9 107C139.2 107.7 138.3 108.1 137.3 108.1C136.3 108.1 135.4 107.7 134.7 107C134 106.3 133.6 105.4 133.6 104.4V60.8H120.2C119.2 60.8 118.3 60.4 117.6 59.7C116.9 59 116.5 58.1 116.5 57.1C116.5 56.1 116.9 55.3 117.6 54.5C118.3 53.8 119.2 53.4 120.2 53.4H154.3C155.3 53.4 156.1 53.8 156.9 54.5C157.6 55.2 158 56.1 158 57.1C158 58.1 157.6 58.9 156.9 59.7C156.2 60.5 155.4 60.8 154.4 60.8Z" fill="#191346"/>
<path d="M225.3 104.5V57.2C225.3 56.7 225.4 56.2 225.6 55.8C225.8 55.4 226 55 226.4 54.6C226.7 54.3 227.1 54 227.5 53.8C227.9 53.6 228.4 53.5 228.9 53.5C230.3 53.5 231.4 54.1 232.1 55.4L252.5 96.2L273 55.5C273.8 54.2 274.9 53.6 276.2 53.6C276.7 53.6 277.2 53.7 277.6 53.9C278 54.1 278.4 54.3 278.8 54.7C279.1 55 279.4 55.4 279.6 55.9C279.8 56.3 279.9 56.8 279.9 57.3V104.6C279.9 105.6 279.5 106.4 278.8 107.2C278.1 107.9 277.2 108.3 276.2 108.3C275.2 108.3 274.3 107.9 273.6 107.2C272.9 106.5 272.5 105.6 272.5 104.6V72.5L255.6 106.2C254.9 107.4 253.9 108 252.5 108C251 108 249.9 107.3 249.2 105.8L232.5 72.4V104.3C232.5 105.3 232.1 106.1 231.4 106.9C230.7 107.6 229.8 108 228.8 108C227.8 108 226.9 107.6 226.2 106.9C225.7 106.3 225.3 105.4 225.3 104.5Z" fill="#191346"/>
<path d="M301.3 104.5C301.3 105.5 300.9 106.3 300.2 107.1C299.5 107.8 298.6 108.2 297.6 108.2C296.6 108.2 295.8 107.8 295 107.1C294.3 106.4 293.9 105.5 293.9 104.5V57.2C293.9 56.2 294.3 55.4 295 54.6C295.7 53.9 296.6 53.5 297.6 53.5C298.6 53.5 299.5 53.9 300.2 54.6C300.9 55.3 301.3 56.2 301.3 57.2V104.5Z" fill="#191346"/>
<path d="M356.6 95.8C357.1 95.8 357.6 95.9 358 96.1C358.4 96.3 358.8 96.5 359.1 96.9C359.4 97.2 359.7 97.6 359.9 98C360.1 98.4 360.2 98.9 360.2 99.4C360.2 100.4 359.8 101.2 359.1 102C354 106 348.3 108.1 342 108.1C334.5 108.1 328 105.4 322.7 100.1C317.4 94.8 314.7 88.4 314.7 80.8C314.7 73.3 317.4 66.9 322.7 61.6C328 56.3 334.5 53.6 342 53.6C348.4 53.6 354.3 55.7 359.5 60C360.1 60.6 360.5 61.4 360.5 62.5C360.5 63 360.4 63.5 360.2 63.9C360 64.3 359.8 64.7 359.4 65C359.1 65.3 358.7 65.6 358.2 65.8C357.8 66 357.3 66.1 356.8 66.1C355.9 66.1 355.1 65.8 354.3 65.1C352.6 63.7 350.7 62.7 348.6 62C346.5 61.3 344.3 60.9 342 60.9C336.5 60.9 331.7 62.9 327.8 66.8C323.9 70.7 322 75.4 322 80.9C322 86.5 323.9 91.2 327.8 95.1C331.7 99 336.4 101 342 101C346.7 101 350.9 99.5 354.5 96.6C355.1 96 355.8 95.8 356.6 95.8Z" fill="#191346"/>
<path d="M409.5 60.8H396V104.4C396 105.4 395.6 106.2 394.9 107C394.2 107.7 393.3 108.1 392.3 108.1C391.3 108.1 390.4 107.7 389.7 107C389 106.3 388.6 105.4 388.6 104.4V60.8H375.2C374.2 60.8 373.3 60.4 372.6 59.7C371.9 59 371.5 58.1 371.5 57.1C371.5 56.1 371.9 55.3 372.6 54.5C373.3 53.8 374.2 53.4 375.2 53.4H409.3C410.3 53.4 411.1 53.8 411.9 54.5C412.6 55.2 413 56.1 413 57.1C413 58.1 412.6 58.9 411.9 59.7C411.3 60.5 410.5 60.8 409.5 60.8Z" fill="#191346"/>
<path d="M474.9 80.8C474.9 88.3 472.2 94.7 466.9 100.1C461.6 105.4 455.2 108.1 447.7 108.1C440.2 108.1 433.7 105.4 428.4 100.1C423.1 94.8 420.4 88.4 420.4 80.8C420.4 73.3 423.1 66.9 428.4 61.6C433.7 56.3 440.2 53.6 447.7 53.6C455.2 53.6 461.6 56.3 466.9 61.6C469.6 64.3 471.6 67.2 472.9 70.4C474.2 73.5 474.9 77 474.9 80.8ZM447.7 60.8C444.9 60.8 442.3 61.3 440 62.3C437.7 63.3 435.5 64.8 433.5 66.7C431.5 68.7 430.1 70.8 429.1 73.1C428.1 75.4 427.7 78 427.7 80.8C427.7 86.3 429.7 91.1 433.6 95C437.5 98.9 442.2 100.9 447.8 100.9C453.3 100.9 458.1 98.9 462 95C465.9 91.1 467.9 86.4 467.9 80.8C467.9 75.3 465.9 70.6 462 66.7C457.9 62.8 453.2 60.8 447.7 60.8Z" fill="#191346"/>
<path d="M9.99995 130.8H8.59995V135.6H7.69995V125.5H8.59995V130.2H9.99995L14.2 125.5H15.2L10.8 130.5L15.5 135.6H14.4L9.99995 130.8Z" fill="#191346"/>
<path d="M21.7 135.5V125.4H24.7999C25.8999 125.4 26.8 125.6 27.4 126.1C27.9999 126.5 28.2999 127.2 28.2999 128.1C28.2999 128.6 28.2 129.1 27.9 129.5C27.5999 129.9 27.2 130.1 26.7 130.3C27.3 130.4 27.9 130.7 28.2 131.2C28.6 131.7 28.7999 132.2 28.7999 132.8C28.7999 133.7 28.4999 134.4 27.9 134.9C27.3 135.4 26.4999 135.6 25.4 135.6H21.7V135.5ZM22.6 130H25C25.8 130 26.3999 129.8 26.7999 129.5C27.1999 129.2 27.4 128.7 27.4 128.1C27.4 127.4 27.2 127 26.7 126.6C26.3 126.3 25.6 126.1 24.7 126.1H22.5V130H22.6ZM22.6 130.7V134.9H25.4C26.2 134.9 26.7999 134.7 27.2999 134.4C27.6999 134 28 133.5 28 132.8C28 132.2 27.8 131.7 27.4 131.3C26.9999 130.9 26.4 130.7 25.6 130.7H22.6Z" fill="#191346"/>
<path d="M41.1999 132.7H36.3999L35.2999 135.6H34.3999L38.3999 125.5H39.1999L43.1999 135.6H42.2999L41.1999 132.7ZM36.5999 132H40.8999L38.7999 126.5L36.5999 132Z" fill="#191346"/>
<path d="M50.2001 131.3V135.5H49.3V125.4H53C54.1 125.4 55 125.7 55.6 126.2C56.2 126.7 56.5 127.5 56.5 128.4C56.5 129.3 56.2 130 55.6 130.6C55 131.1 54.1 131.4 53 131.4H50.2001V131.3ZM50.2001 130.6H53C53.9 130.6 54.6 130.4 55 130C55.4 129.6 55.6 129 55.6 128.4C55.6 127.7 55.4 127.2 55 126.8C54.6 126.4 53.9 126.2 53 126.2H50.2001V130.6Z" fill="#191346"/>
<path d="M70.1999 126.1H66.5999V135.5H65.6999V126.1H62.0999V125.4H70.1999V126.1Z" fill="#191346"/>
<path d="M81.6 132.7H76.8L75.7 135.6H74.8L78.8 125.5H79.6L83.6 135.6H82.7L81.6 132.7ZM77 132H81.3L79.2 126.5L77 132Z" fill="#191346"/>
<path d="M97.6 125.4V135.5H96.7V126.1H92.2L92 130C91.9 132.1 91.7 133.5 91.3 134.3C90.9 135.1 90.2 135.5 89.1 135.5H88.8V134.8H89.1C89.8 134.8 90.3 134.5 90.6 133.8C90.9 133.1 91.1 131.9 91.2 130L91.4 125.4H97.6Z" fill="#191346"/>
<path d="M120.7 135.5H119.8V126.1H113.8V135.5H112.9V125.4H120.7V135.5Z" fill="#191346"/>
<path d="M135.8 131.3C135.8 132.6 135.4 133.7 134.7 134.5C133.9 135.3 132.9 135.7 131.7 135.7C130.5 135.7 129.5 135.3 128.7 134.5C128 133.7 127.6 132.6 127.6 131.3V129.7C127.6 128.4 128 127.3 128.7 126.5C129.4 125.7 130.4 125.3 131.7 125.3C133 125.3 134 125.7 134.7 126.5C135.5 127.3 135.8 128.4 135.8 129.7V131.3ZM134.9 129.6C134.9 128.5 134.6 127.6 134 127C133.4 126.3 132.6 126 131.6 126C130.6 126 129.8 126.3 129.2 127C128.6 127.7 128.4 128.5 128.4 129.6V131.3C128.4 132.4 128.7 133.3 129.3 133.9C129.9 134.6 130.7 134.9 131.7 134.9C132.7 134.9 133.5 134.6 134.1 133.9C134.7 133.2 135 132.3 135 131.3V129.6H134.9Z" fill="#191346"/>
<path d="M149.3 128.1C149.3 128.6 149.1 129.1 148.8 129.5C148.5 129.9 148 130.2 147.4 130.4C148.1 130.6 148.6 130.9 148.9 131.3C149.2 131.7 149.4 132.2 149.4 132.9C149.4 133.8 149.1 134.5 148.4 135C147.7 135.5 146.8 135.8 145.6 135.8C144.6 135.8 143.7 135.6 143 135.1C142.3 134.6 141.9 133.9 141.9 132.9H142.8C142.8 133.6 143.1 134.1 143.6 134.5C144.1 134.9 144.8 135.1 145.7 135.1C146.6 135.1 147.4 134.9 147.9 134.5C148.4 134.1 148.7 133.6 148.7 132.9C148.7 132.2 148.5 131.6 148 131.3C147.5 131 146.8 130.8 145.8 130.8H144.5V130H145.8C146.8 130 147.5 129.8 147.9 129.5C148.3 129.2 148.6 128.7 148.6 128C148.6 127.4 148.4 126.9 147.9 126.5C147.4 126.1 146.7 125.9 145.8 125.9C145 125.9 144.4 126.1 143.9 126.5C143.4 126.9 143.1 127.4 143.1 128H142.2C142.2 127.1 142.5 126.5 143.2 126C143.9 125.5 144.7 125.2 145.7 125.2C146.9 125.2 147.8 125.4 148.4 125.9C148.9 126.5 149.3 127.2 149.3 128.1Z" fill="#191346"/>
<path d="M162.9 125.4H163.8V135.5H162.9V126.8L156.8 135.5H156V125.4H156.9V134.1L162.9 125.4Z" fill="#191346"/>
<path d="M178 126.1H174.4V135.5H173.5V126.1H169.9V125.4H178V126.1Z" fill="#191346"/>
<path d="M191.2 125.4H192.1V135.5H191.2V126.8L185.1 135.5H184.2V125.4H185.1V134.1L191.2 125.4Z" fill="#191346"/>
<path d="M199.3 135.5V125.4H202.4C203.5 125.4 204.4 125.6 205 126.1C205.6 126.5 205.9 127.2 205.9 128.1C205.9 128.6 205.8 129.1 205.5 129.5C205.2 129.9 204.8 130.1 204.3 130.3C204.9 130.4 205.5 130.7 205.8 131.2C206.2 131.7 206.4 132.2 206.4 132.8C206.4 133.7 206.1 134.4 205.5 134.9C204.9 135.4 204.1 135.6 203 135.6H199.3V135.5ZM200.2 130H202.6C203.4 130 204 129.8 204.4 129.5C204.8 129.2 205 128.7 205 128.1C205 127.4 204.8 127 204.3 126.6C203.9 126.3 203.2 126.1 202.3 126.1H200.1V130H200.2ZM200.2 130.7V134.9H203C203.8 134.9 204.4 134.7 204.9 134.4C205.3 134 205.6 133.5 205.6 132.8C205.6 132.2 205.4 131.7 205 131.3C204.6 130.9 204 130.7 203.2 130.7H200.2Z" fill="#191346"/>
<path d="M220.8 135.5H220V130.8H214V135.5H213.1V125.4H214V130.1H220V125.4H220.9V135.5H220.8Z" fill="#191346"/>
<path d="M235.1 125.4H236V135.5H235.1V126.8L229 135.5H228.1V125.4H229V134.1L235.1 125.4Z" fill="#191346"/>
<path d="M246.5 129.7L249.5 125.4H250.6L247.1 130.4L250.7 135.5H249.7L246.6 131L243.5 135.5H242.4L246 130.4L242.5 125.4H243.6L246.5 129.7Z" fill="#191346"/>
<path d="M272.8 125.4V135.5H271.9V126.1H267.4L267.2 130C267.1 132.1 266.9 133.5 266.5 134.3C266.1 135.1 265.4 135.5 264.3 135.5H264V134.8H264.3C265 134.8 265.5 134.5 265.8 133.8C266.1 133.1 266.3 131.9 266.4 130L266.6 125.4H272.8Z" fill="#191346"/>
<path d="M291.3 131.3C291.3 132.6 290.9 133.7 290.2 134.5C289.4 135.3 288.4 135.7 287.2 135.7C286 135.7 285 135.3 284.2 134.5C283.5 133.7 283.1 132.6 283.1 131.3V130.8H281.1V135.6H280.2V125.5H281.1V130.1H283.1V129.7C283.1 128.4 283.5 127.3 284.2 126.5C284.9 125.7 285.9 125.3 287.2 125.3C288.5 125.3 289.5 125.7 290.2 126.5C291 127.3 291.3 128.4 291.3 129.7V131.3ZM290.4 129.6C290.4 128.5 290.1 127.6 289.5 127C288.9 126.3 288.1 126 287.1 126C286.1 126 285.3 126.3 284.7 127C284.1 127.7 283.9 128.5 283.9 129.6V131.3C283.9 132.4 284.2 133.3 284.8 133.9C285.4 134.6 286.2 134.9 287.2 134.9C288.2 134.9 289 134.6 289.6 133.9C290.2 133.2 290.5 132.3 290.5 131.3V129.6H290.4Z" fill="#191346"/>
<path d="M306.8 138H305.9V135.5H297.8V138H297V134.8H297.7C298.1 134.4 298.5 133.7 298.9 132.8C299.3 131.9 299.5 130.6 299.6 129L299.8 125.4H305.7V134.8H306.8V138ZM300.5 129.1C300.4 130.4 300.2 131.6 299.9 132.6C299.6 133.6 299.2 134.3 298.7 134.9H304.8V126.2H300.7L300.5 129.1Z" fill="#191346"/>
<path d="M319.1 130.6H314V134.8H319.9V135.5H313.2V125.4H319.9V126.1H314V129.9H319.1V130.6Z" fill="#191346"/>
<path d="M333.2 125.4H334.1V135.5H333.2V126.8L327.1 135.5H326.2V125.4H327.1V134.1L333.2 125.4ZM332.3 122.7C332.3 123.2 332.1 123.7 331.7 124C331.3 124.3 330.8 124.5 330.2 124.5C329.5 124.5 329 124.3 328.7 124C328.3 123.7 328.1 123.2 328.1 122.7H328.8C328.8 123.1 328.9 123.3 329.1 123.6C329.3 123.8 329.7 123.9 330.1 123.9C330.6 123.9 330.9 123.8 331.1 123.6C331.3 123.4 331.4 123.1 331.4 122.7H332.3Z" fill="#191346"/>
</g>
<defs>
<clipPath id="clip0">
<rect width="538.4" height="178.5" fill="white"/>
</clipPath>
</defs>
</svg>
