<svg width="536" height="178" viewBox="0 0 536 178" fill="none" xmlns="http://www.w3.org/2000/svg">
<g clip-path="url(#clip0)">
<path d="M211.354 106.7C210.657 107.398 209.761 107.797 208.765 107.797C207.77 107.797 206.874 107.398 206.177 106.7C205.48 106.002 205.082 105.105 205.082 104.108V67.5104L174.817 106.501C174.021 107.299 173.125 107.797 172.03 107.797C171.532 107.797 171.034 107.698 170.636 107.498C170.238 107.299 169.839 107.099 169.441 106.7C169.143 106.401 168.844 106.002 168.645 105.603C168.446 105.205 168.346 104.706 168.346 104.207V57.0399C168.346 56.0427 168.744 55.2449 169.441 54.4471C170.138 53.7491 171.034 53.3502 172.03 53.3502C173.025 53.3502 173.822 53.7491 174.618 54.4471C175.315 55.1452 175.713 56.0427 175.713 57.0399V93.7368L206.077 54.7463C206.874 53.8488 207.77 53.4499 208.865 53.4499C209.363 53.4499 209.86 53.5497 210.259 53.7491C210.657 53.9485 211.055 54.148 211.354 54.5469C211.652 54.846 211.951 55.2449 212.15 55.7435C212.349 56.1424 212.449 56.641 212.449 57.1396V104.307C212.449 105.105 212.051 106.002 211.354 106.7Z" fill="white"/>
<path d="M170.536 146.09C168.744 144.694 166.156 145.092 164.762 146.887C164.563 147.087 164.463 147.386 164.364 147.585C162.472 150.477 160.183 153.17 157.694 155.563C154.309 158.754 150.526 161.546 146.345 163.74C134.796 169.823 121.058 171.518 107.618 167.43C95.8706 163.84 86.413 156.361 80.1411 146.788C80.0415 146.489 79.8424 146.289 79.7428 146.09C78.3491 144.295 75.7607 143.896 73.9687 145.292C72.1767 146.688 71.7785 149.081 72.9732 151.175C72.9732 151.275 73.0727 151.375 73.0727 151.375C76.358 156.461 80.5393 160.848 85.3179 164.737C85.6165 164.937 85.9152 165.136 86.1143 165.336C91.4902 169.524 97.6626 172.914 104.532 175.108C105.627 175.407 106.722 175.706 107.817 176.006C107.917 176.006 108.116 176.105 108.215 176.105C117.972 178.598 128.524 178.898 138.878 175.806C146.046 173.712 152.517 170.322 157.992 166.034C158.192 165.834 158.49 165.635 158.789 165.435C163.568 161.646 167.649 157.059 171.034 152.073C171.034 151.973 171.134 151.973 171.134 151.873C172.726 150.078 172.428 147.486 170.536 146.09Z" fill="#85C441"/>
<path d="M527.239 75.0891C523.058 36.1984 493.391 6.28239 456.755 0.199478C455.361 -0.299122 453.768 3.79384e-05 452.574 1.09696C450.881 2.69247 450.782 5.28519 452.275 7.08015C452.972 7.77819 453.768 8.27679 454.664 8.37651C488.015 13.6617 515.094 40.7855 518.877 76.0863C521.166 97.2269 514.695 117.171 502.351 132.528C490.006 147.885 471.887 158.455 450.881 160.649C420.019 163.94 391.447 148.383 376.614 123.254C376.514 122.955 376.315 122.656 376.116 122.456C376.116 122.356 376.016 122.356 376.016 122.257L375.917 122.157C374.324 120.462 371.636 120.262 369.944 121.858C368.649 123.054 368.251 124.849 368.848 126.345H368.749C368.848 126.545 369.048 126.744 369.147 126.943L369.247 127.043C385.574 155.164 417.431 172.515 451.777 168.826C498.468 163.84 532.217 121.858 527.239 75.0891Z" fill="#842990"/>
<path d="M535.502 74.2914C532.217 43.7771 514.596 18.2488 490.106 3.78941C488.513 2.79221 486.522 2.89193 485.028 4.18829C483.336 5.78381 483.236 8.37653 484.73 10.1715C485.128 10.6701 485.626 10.9692 486.123 11.1687C508.224 24.4314 524.054 47.4667 527.04 75.1889C529.529 98.5233 522.361 120.661 508.722 137.713C495.083 154.666 474.973 166.433 451.678 168.926C407.177 173.712 367.056 143.198 359.092 99.8197C358.993 98.9222 358.694 98.0247 357.997 97.3267C356.404 95.6314 353.716 95.432 352.024 97.0275C351.028 97.925 350.63 99.1216 350.73 100.418C350.73 100.518 350.73 100.518 350.73 100.617C350.73 100.817 350.829 101.016 350.829 101.216C359.59 148.882 403.692 182.388 452.574 177.202C503.944 171.618 540.978 125.547 535.502 74.2914Z" fill="#EC008C"/>
<path d="M518.976 75.9866C514.397 33.8051 476.666 3.19108 434.455 7.7782C432.961 7.97764 431.468 8.17708 429.975 8.37652C428.88 8.2768 427.685 8.67568 426.888 9.47344C425.196 11.069 425.097 13.6617 426.59 15.4566C427.585 16.4538 428.88 16.9524 430.174 16.8527V16.9524C431.866 16.6533 433.658 16.3541 435.351 16.1547C454.166 14.1603 471.887 19.944 485.526 30.9132C499.165 41.8824 508.623 58.1367 510.614 76.8841C512.605 95.7311 506.831 113.481 495.88 127.143C484.929 140.805 468.701 150.278 449.985 152.272C430.373 154.366 411.756 147.984 397.918 135.918C396.325 134.722 394.036 134.821 392.542 136.217C390.85 137.813 390.75 140.406 392.244 142.201C392.542 142.5 392.841 142.699 393.14 142.899C408.57 155.962 429.178 162.942 450.782 160.649C492.993 156.161 523.556 118.268 518.976 75.9866Z" fill="#F68A22"/>
<path d="M510.713 76.8841C506.631 39.19 472.883 11.9664 435.351 16.0549C426.789 16.9524 418.825 19.4454 411.557 23.1351C410.96 23.3345 410.462 23.6337 409.964 24.0325C408.272 25.6281 408.172 28.2208 409.666 30.0157C411.059 31.6112 413.449 31.8107 415.141 30.7138C421.513 27.423 428.581 25.2292 436.147 24.4314C452.673 22.6365 468.303 27.7222 480.25 37.395C492.196 47.0678 500.559 61.3278 502.251 77.8813C504.043 94.4348 498.966 110.091 489.309 122.057C479.652 134.024 465.416 142.4 448.89 144.095C442.917 144.694 437.143 144.494 431.568 143.397C430.074 142.799 428.382 143.098 427.187 144.195C425.495 145.791 425.395 148.383 426.888 150.178C427.386 150.677 427.884 151.076 428.481 151.275V151.375C435.351 152.771 442.419 153.17 449.786 152.372C487.617 148.383 514.795 114.578 510.713 76.8841Z" fill="#85C441"/>
<path d="M302.943 33.2067C302.844 32.5087 302.545 32.0101 302.147 31.5115L302.247 31.4118C297.169 26.8246 291.395 22.8359 284.825 19.8443C251.175 4.38767 211.353 19.2459 195.923 52.9513C192.637 60.2308 190.746 67.8095 190.049 75.2885L201.597 60.4302C202.095 59.0342 202.692 57.6381 203.29 56.242C215.236 30.0157 244.007 16.7529 270.986 23.4342C271.484 23.5339 271.882 23.6336 272.281 23.8331C275.367 24.6308 278.453 25.7277 281.44 27.1238C286.716 29.5171 291.495 32.7081 295.676 36.3978C296.572 37.5944 298.165 38.2924 299.758 37.8936C301.948 37.5944 303.342 35.4006 302.943 33.2067Z" fill="#842990"/>
<path d="M203.29 56.3418C202.692 57.7378 202.095 59.1339 201.597 60.53L206.077 54.7463C206.874 53.8488 207.77 53.4499 208.865 53.4499C209.362 53.4499 209.86 53.5496 210.258 53.7491C210.657 53.9485 211.055 54.1479 211.353 54.5468C211.652 54.846 211.951 55.2449 212.15 55.7435C212.249 56.0426 212.349 56.3418 212.349 56.6409C223.4 36.2981 246.795 26.2264 268.796 31.6112C269.493 31.9104 270.29 32.0101 271.186 31.8107C273.376 31.3121 274.869 29.1182 274.371 26.9244C274.073 25.628 273.276 24.6308 272.181 24.0325C271.783 23.8331 271.385 23.6336 270.887 23.6336C243.908 16.9524 215.236 30.1154 203.29 56.3418Z" fill="#F68A22"/>
<path d="M54.2571 80.5737C54.2571 88.0527 51.5691 94.4348 46.2927 99.8196C41.0163 105.105 34.6449 107.797 27.1783 107.797C19.7117 107.797 13.2407 105.105 7.96434 99.8196C2.68796 94.5345 0 88.1524 0 80.5737C0 73.0947 2.68796 66.7126 7.96434 61.4275C13.2407 56.1423 19.7117 53.4499 27.1783 53.4499C34.6449 53.4499 41.0163 56.1423 46.2927 61.4275C48.9807 64.1199 50.9718 67.0118 52.266 70.2028C53.5602 73.2942 54.2571 76.7844 54.2571 80.5737ZM27.0788 60.6297C24.2912 60.6297 21.7028 61.1283 19.4131 62.1255C17.1233 63.1227 14.9331 64.6185 12.9421 66.5132C10.951 68.5076 9.55721 70.6017 8.56166 72.8953C7.56612 75.1888 7.1679 77.7816 7.1679 80.5737C7.1679 86.0583 9.15899 90.8449 13.0416 94.7339C16.9242 98.623 21.6033 100.617 27.1783 100.617C32.7533 100.617 37.4324 98.623 41.315 94.7339C45.1976 90.8449 47.1887 86.158 47.1887 80.5737C47.1887 75.0891 45.1976 70.4023 41.315 66.5132C37.3328 62.6241 32.6538 60.6297 27.0788 60.6297Z" fill="white"/>
<path d="M101.047 53.4499C101.545 53.4499 102.043 53.5497 102.441 53.7491C102.839 53.9485 103.238 54.148 103.636 54.5469C103.935 54.846 104.233 55.2449 104.432 55.7435C104.631 56.1424 104.731 56.641 104.731 57.1396V104.307C104.731 104.806 104.631 105.304 104.432 105.703C104.233 106.102 104.034 106.501 103.636 106.8C103.337 107.099 102.939 107.398 102.441 107.598C102.043 107.797 101.545 107.897 101.047 107.897C100.55 107.897 100.052 107.797 99.6537 107.598C99.2555 107.398 98.8573 107.199 98.5586 106.8C98.26 106.501 97.9613 106.102 97.7622 105.703C97.5631 105.304 97.4635 104.806 97.4635 104.307V60.6298H73.2719V104.108C73.2719 104.606 73.1723 105.105 72.9732 105.504C72.7741 105.903 72.575 106.301 72.1768 106.601C71.8781 106.9 71.4799 107.199 70.9821 107.398C70.5839 107.598 70.0861 107.698 69.5883 107.698C69.0906 107.698 68.5928 107.598 68.1946 107.398C67.7964 107.199 67.3982 107 67.0995 106.601C66.8008 106.301 66.5022 105.903 66.3031 105.504C66.1039 105.105 66.0044 104.606 66.0044 104.108V57.0399C66.0044 56.5413 66.1039 56.0427 66.3031 55.6438C66.5022 55.2449 66.7013 54.846 67.0995 54.4471C67.3982 54.148 67.7964 53.8488 68.1946 53.6494C68.5928 53.4499 69.0906 53.3502 69.5883 53.3502H101.047V53.4499Z" fill="white"/>
<path d="M153.712 60.6298H140.372V104.108C140.372 105.105 139.973 106.002 139.276 106.7C138.58 107.398 137.684 107.797 136.688 107.797C135.692 107.797 134.796 107.398 134.1 106.7C133.403 106.002 133.004 105.105 133.004 104.108V60.6298H119.664C118.669 60.6298 117.773 60.2309 117.076 59.5328C116.379 58.8348 115.981 57.9373 115.981 56.9401C115.981 55.9429 116.379 55.1452 117.076 54.3474C117.773 53.6494 118.669 53.2505 119.664 53.2505H153.612C154.608 53.2505 155.404 53.6494 156.201 54.3474C156.898 55.0454 157.296 55.9429 157.296 56.9401C157.296 57.9373 156.898 58.8348 156.201 59.5328C155.504 60.3306 154.707 60.6298 153.712 60.6298Z" fill="white"/>
<path d="M224.296 104.207V57.0399C224.296 56.5413 224.395 56.0427 224.594 55.6438C224.793 55.2449 224.993 54.846 225.391 54.4471C225.689 54.148 226.088 53.8488 226.486 53.6494C226.884 53.4499 227.382 53.3502 227.88 53.3502C229.273 53.3502 230.368 53.9485 231.065 55.2449L251.374 95.9306L271.783 55.3446C272.579 54.0483 273.675 53.4499 274.969 53.4499C275.467 53.4499 275.964 53.5497 276.363 53.7491C276.761 53.9485 277.159 54.148 277.557 54.5469C277.856 54.846 278.154 55.2449 278.354 55.7435C278.553 56.1424 278.652 56.641 278.652 57.1396V104.307C278.652 105.304 278.254 106.202 277.557 106.9C276.86 107.598 275.964 107.997 274.969 107.997C273.973 107.997 273.077 107.598 272.38 106.9C271.683 106.202 271.285 105.304 271.285 104.307V72.297L254.461 105.903C253.764 107.099 252.768 107.698 251.374 107.698C249.881 107.698 248.786 107 248.089 105.504L231.464 72.1973V104.008C231.464 105.005 231.065 105.903 230.368 106.601C229.672 107.299 228.776 107.698 227.78 107.698C226.785 107.698 225.889 107.299 225.192 106.601C224.694 106.002 224.296 105.105 224.296 104.207Z" fill="white"/>
<path d="M299.957 104.207C299.957 105.205 299.559 106.102 298.862 106.8C298.165 107.498 297.269 107.897 296.273 107.897C295.278 107.897 294.481 107.498 293.685 106.8C292.988 106.102 292.59 105.205 292.59 104.207V57.0399C292.59 56.0427 292.988 55.2449 293.685 54.4471C294.382 53.7491 295.278 53.3502 296.273 53.3502C297.269 53.3502 298.165 53.7491 298.862 54.4471C299.559 55.1452 299.957 56.0427 299.957 57.0399V104.207Z" fill="white"/>
<path d="M355.01 95.5317C355.508 95.5317 356.006 95.6314 356.404 95.8308C356.802 96.0303 357.201 96.2297 357.499 96.6286C357.798 96.9278 358.097 97.3266 358.296 97.7255C358.495 98.1244 358.594 98.623 358.594 99.1216C358.594 100.119 358.196 100.917 357.499 101.714C352.422 105.703 346.747 107.797 340.475 107.797C333.009 107.797 326.538 105.105 321.262 99.8196C315.985 94.5345 313.297 88.1524 313.297 80.5737C313.297 73.0947 315.985 66.7126 321.262 61.4275C326.538 56.1423 333.009 53.4499 340.475 53.4499C346.847 53.4499 352.721 55.544 357.897 59.832C358.495 60.4303 358.893 61.228 358.893 62.325C358.893 62.8236 358.793 63.3222 358.594 63.721C358.395 64.1199 358.196 64.5188 357.798 64.818C357.499 65.1171 357.101 65.4163 356.603 65.6157C356.205 65.8152 355.707 65.9149 355.209 65.9149C354.314 65.9149 353.517 65.6157 352.721 64.9177C351.028 63.5216 349.137 62.5244 347.046 61.8264C344.955 61.1283 342.765 60.7294 340.475 60.7294C335 60.7294 330.221 62.7238 326.339 66.6129C322.456 70.502 320.565 75.1888 320.565 80.6734C320.565 86.2577 322.456 90.9446 326.339 94.8337C330.221 98.7227 334.9 100.717 340.475 100.717C345.155 100.717 349.336 99.2213 352.92 96.3294C353.517 95.7311 354.214 95.5317 355.01 95.5317Z" fill="white"/>
<path d="M407.675 60.6298H394.235V104.108C394.235 105.105 393.837 106.002 393.14 106.7C392.443 107.398 391.547 107.797 390.551 107.797C389.556 107.797 388.66 107.398 387.963 106.7C387.266 106.002 386.868 105.105 386.868 104.108V60.6298H373.528C372.532 60.6298 371.636 60.2309 370.939 59.5328C370.242 58.8348 369.844 57.9373 369.844 56.9401C369.844 55.9429 370.242 55.1452 370.939 54.3474C371.636 53.6494 372.532 53.2505 373.528 53.2505H407.475C408.471 53.2505 409.267 53.6494 410.064 54.3474C410.761 55.0454 411.159 55.9429 411.159 56.9401C411.159 57.9373 410.761 58.8348 410.064 59.5328C409.467 60.3306 408.67 60.6298 407.675 60.6298Z" fill="white"/>
<path d="M472.783 80.5737C472.783 88.0527 470.095 94.4348 464.819 99.8196C459.542 105.105 453.171 107.797 445.704 107.797C438.238 107.797 431.767 105.105 426.49 99.8196C421.214 94.5345 418.526 88.1524 418.526 80.5737C418.526 73.0947 421.214 66.7126 426.49 61.4275C431.767 56.1423 438.238 53.4499 445.704 53.4499C453.171 53.4499 459.542 56.1423 464.819 61.4275C467.507 64.1199 469.498 67.0118 470.792 70.2028C472.086 73.2942 472.783 76.7844 472.783 80.5737ZM445.704 60.6297C442.917 60.6297 440.328 61.1283 438.039 62.1255C435.749 63.1227 433.559 64.6185 431.568 66.5132C429.577 68.5076 428.183 70.6017 427.187 72.8953C426.192 75.1888 425.793 77.7816 425.793 80.5737C425.793 86.0583 427.785 90.8449 431.667 94.7339C435.55 98.623 440.229 100.617 445.804 100.617C451.279 100.617 456.058 98.623 459.941 94.7339C463.823 90.8449 465.814 86.158 465.814 80.5737C465.814 75.0891 463.823 70.4023 459.941 66.5132C455.859 62.6241 451.18 60.6297 445.704 60.6297Z" fill="white"/>
<path d="M9.95528 130.434H8.56152V135.22H7.66553V125.149H8.56152V129.835H9.95528L14.1366 125.149H15.1321L10.7517 130.135L15.4308 135.22H14.3357L9.95528 130.434Z" fill="white"/>
<path d="M21.6033 135.121V125.049H24.6895C25.7845 125.049 26.6805 125.248 27.2779 125.747C27.8752 126.146 28.1739 126.844 28.1739 127.741C28.1739 128.24 28.0743 128.738 27.7756 129.137C27.477 129.536 27.0788 129.736 26.581 129.935C27.1783 130.035 27.7756 130.334 28.0743 130.833C28.4725 131.331 28.6716 131.83 28.6716 132.428C28.6716 133.326 28.373 134.024 27.7756 134.522C27.1783 135.021 26.3819 135.22 25.2868 135.22H21.6033V135.121ZM22.4993 129.636H24.8886C25.685 129.636 26.2823 129.437 26.6805 129.137C27.0788 128.838 27.2779 128.34 27.2779 127.741C27.2779 127.043 27.0788 126.644 26.581 126.245C26.1828 125.946 25.4859 125.747 24.5899 125.747H22.3997V129.636H22.4993ZM22.4993 130.334V134.522H25.2868C26.0832 134.522 26.6805 134.323 27.1783 134.024C27.5765 133.625 27.8752 133.126 27.8752 132.428C27.8752 131.83 27.6761 131.331 27.2779 130.932C26.8796 130.533 26.2823 130.334 25.4859 130.334H22.4993Z" fill="white"/>
<path d="M41.0163 132.328H36.2377L35.1426 135.22H34.2466L38.2287 125.148H39.0252L43.0073 135.22H42.1114L41.0163 132.328ZM36.4368 131.63H40.7176L38.627 126.146L36.4368 131.63Z" fill="white"/>
<path d="M49.9762 130.932V135.121H49.0802V125.049H52.7637C53.8588 125.049 54.7548 125.348 55.3521 125.847C55.9494 126.345 56.2481 127.143 56.2481 128.04C56.2481 128.938 55.9494 129.636 55.3521 130.234C54.7548 130.733 53.8588 131.032 52.7637 131.032H49.9762V130.932ZM49.9762 130.234H52.7637C53.6597 130.234 54.3566 130.035 54.7548 129.636C55.153 129.237 55.3521 128.639 55.3521 128.04C55.3521 127.342 55.153 126.844 54.7548 126.445C54.3566 126.046 53.6597 125.847 52.7637 125.847H49.9762V130.234Z" fill="white"/>
<path d="M69.8869 125.747H66.3029V135.121H65.4069V125.747H61.823V125.049H69.8869V125.747Z" fill="white"/>
<path d="M81.236 132.328H76.4574L75.3623 135.22H74.4663L78.4485 125.148H79.2449L83.2271 135.22H82.3311L81.236 132.328ZM76.6565 131.63H80.9373L78.8467 126.146L76.6565 131.63Z" fill="white"/>
<path d="M97.1648 125.049V135.121H96.2688V125.747H91.7889L91.5898 129.636C91.4902 131.73 91.2911 133.126 90.8929 133.924C90.4947 134.722 89.7978 135.121 88.7027 135.121H88.4041V134.422H88.7027C89.3996 134.422 89.8974 134.123 90.196 133.425C90.4947 132.727 90.6938 131.531 90.7933 129.636L90.9925 125.049H97.1648Z" fill="white"/>
<path d="M120.162 135.121H119.266V125.747H113.293V135.121H112.397V125.049H120.162V135.121Z" fill="white"/>
<path d="M135.194 130.932C135.194 132.229 134.796 133.326 134.099 134.123C133.303 134.921 132.307 135.32 131.113 135.32C129.918 135.32 128.923 134.921 128.126 134.123C127.429 133.326 127.031 132.229 127.031 130.932V129.337C127.031 128.04 127.429 126.943 128.126 126.146C128.823 125.348 129.819 124.949 131.113 124.949C132.407 124.949 133.402 125.348 134.099 126.146C134.896 126.943 135.194 128.04 135.194 129.337V130.932ZM134.298 129.237C134.298 128.14 134 127.243 133.402 126.644C132.805 125.946 132.009 125.647 131.013 125.647C130.018 125.647 129.221 125.946 128.624 126.644C128.027 127.342 127.827 128.14 127.827 129.237V130.932C127.827 132.029 128.126 132.927 128.723 133.525C129.321 134.223 130.117 134.522 131.113 134.522C132.108 134.522 132.905 134.223 133.502 133.525C134.099 132.827 134.398 131.929 134.398 130.932V129.237H134.298Z" fill="white"/>
<path d="M148.634 127.741C148.634 128.24 148.435 128.738 148.137 129.137C147.838 129.536 147.34 129.835 146.743 130.035C147.44 130.234 147.937 130.533 148.236 130.932C148.535 131.331 148.734 131.83 148.734 132.528C148.734 133.425 148.435 134.123 147.738 134.622C147.041 135.121 146.145 135.42 144.951 135.42C143.955 135.42 143.059 135.22 142.362 134.722C141.666 134.223 141.267 133.525 141.267 132.528H142.163C142.163 133.226 142.462 133.724 142.96 134.123C143.458 134.522 144.154 134.722 145.05 134.722C145.946 134.722 146.743 134.522 147.241 134.123C147.738 133.724 148.037 133.226 148.037 132.528C148.037 131.83 147.838 131.231 147.34 130.932C146.842 130.633 146.145 130.434 145.15 130.434H143.856V129.636H145.15C146.145 129.636 146.842 129.436 147.241 129.137C147.639 128.838 147.937 128.34 147.937 127.642C147.937 127.043 147.738 126.545 147.241 126.146C146.743 125.747 146.046 125.547 145.15 125.547C144.354 125.547 143.756 125.747 143.258 126.146C142.761 126.545 142.462 127.043 142.462 127.642H141.566C141.566 126.744 141.865 126.146 142.562 125.647C143.258 125.149 144.055 124.849 145.05 124.849C146.245 124.849 147.141 125.049 147.738 125.547C148.236 126.146 148.634 126.844 148.634 127.741Z" fill="white"/>
<path d="M162.174 125.049H163.07V135.121H162.174V126.445L156.101 135.121H155.305V125.049H156.201V133.724L162.174 125.049Z" fill="white"/>
<path d="M177.206 125.747H173.622V135.121H172.726V125.747H169.142V125.049H177.206V125.747Z" fill="white"/>
<path d="M190.348 125.049H191.244V135.121H190.348V126.445L184.275 135.121H183.379V125.049H184.275V133.724L190.348 125.049Z" fill="white"/>
<path d="M198.411 135.121V125.049H201.498C202.593 125.049 203.489 125.248 204.086 125.747C204.683 126.146 204.982 126.844 204.982 127.741C204.982 128.24 204.882 128.738 204.584 129.137C204.285 129.536 203.887 129.736 203.389 129.935C203.987 130.035 204.584 130.334 204.882 130.833C205.281 131.331 205.48 131.83 205.48 132.428C205.48 133.326 205.181 134.024 204.584 134.522C203.987 135.021 203.19 135.22 202.095 135.22H198.411V135.121ZM199.307 129.636H201.697C202.493 129.636 203.091 129.437 203.489 129.137C203.887 128.838 204.086 128.34 204.086 127.741C204.086 127.043 203.887 126.644 203.389 126.245C202.991 125.946 202.294 125.747 201.398 125.747H199.208V129.636H199.307ZM199.307 130.334V134.522H202.095C202.891 134.522 203.489 134.323 203.987 134.024C204.385 133.625 204.683 133.126 204.683 132.428C204.683 131.83 204.484 131.331 204.086 130.932C203.688 130.533 203.091 130.334 202.294 130.334H199.307Z" fill="white"/>
<path d="M219.816 135.121H219.019V130.434H213.046V135.121H212.15V125.049H213.046V129.736H219.019V125.049H219.915V135.121H219.816Z" fill="white"/>
<path d="M234.052 125.049H234.948V135.121H234.052V126.445L227.979 135.121H227.083V125.049H227.979V133.724L234.052 125.049Z" fill="white"/>
<path d="M245.401 129.337L248.388 125.049H249.483L245.998 130.035L249.582 135.121H248.587L245.501 130.633L242.414 135.121H241.319L244.903 130.035L241.419 125.049H242.514L245.401 129.337Z" fill="white"/>
<path d="M271.584 125.049V135.121H270.688V125.747H266.208L266.009 129.636C265.909 131.73 265.71 133.126 265.312 133.924C264.914 134.722 264.217 135.121 263.122 135.121H262.823V134.422H263.122C263.818 134.422 264.316 134.123 264.615 133.425C264.914 132.727 265.113 131.531 265.212 129.636L265.411 125.049H271.584Z" fill="white"/>
<path d="M290.001 130.932C290.001 132.229 289.603 133.326 288.906 134.123C288.11 134.921 287.114 135.32 285.92 135.32C284.725 135.32 283.73 134.921 282.933 134.123C282.236 133.326 281.838 132.229 281.838 130.932V130.434H279.847V135.22H278.951V125.149H279.847V129.736H281.838V129.337C281.838 128.04 282.236 126.943 282.933 126.146C283.63 125.348 284.626 124.949 285.92 124.949C287.214 124.949 288.209 125.348 288.906 126.146C289.703 126.943 290.001 128.04 290.001 129.337V130.932ZM289.105 129.237C289.105 128.14 288.807 127.243 288.209 126.644C287.612 125.946 286.816 125.647 285.82 125.647C284.825 125.647 284.028 125.946 283.431 126.644C282.834 127.342 282.634 128.14 282.634 129.237V130.932C282.634 132.029 282.933 132.927 283.53 133.525C284.128 134.223 284.924 134.522 285.92 134.522C286.915 134.522 287.712 134.223 288.309 133.525C288.906 132.827 289.205 131.929 289.205 130.932V129.237H289.105Z" fill="white"/>
<path d="M305.432 137.614H304.536V135.121H296.472V137.614H295.676V134.422H296.373C296.771 134.024 297.169 133.326 297.568 132.428C297.966 131.531 298.165 130.234 298.264 128.639L298.464 125.049H304.337V134.422H305.432V137.614ZM299.16 128.738C299.061 130.035 298.862 131.231 298.563 132.229C298.264 133.226 297.866 133.924 297.368 134.522H303.441V125.847H299.36L299.16 128.738Z" fill="white"/>
<path d="M317.677 130.234H312.6V134.422H318.474V135.121H311.804V125.049H318.474V125.747H312.6V129.536H317.677V130.234Z" fill="white"/>
<path d="M331.715 125.049H332.611V135.121H331.715V126.445L325.642 135.121H324.746V125.049H325.642V133.724L331.715 125.049ZM330.819 122.356C330.819 122.855 330.62 123.354 330.221 123.653C329.823 123.952 329.325 124.151 328.728 124.151C328.031 124.151 327.533 123.952 327.235 123.653C326.836 123.354 326.637 122.855 326.637 122.356H327.334C327.334 122.755 327.434 122.955 327.633 123.254C327.832 123.453 328.23 123.553 328.628 123.553C329.126 123.553 329.425 123.453 329.624 123.254C329.823 123.054 329.923 122.755 329.923 122.356H330.819Z" fill="white"/>
</g>
<defs>
<clipPath id="clip0">
<rect width="536" height="178" fill="white"/>
</clipPath>
</defs>
</svg>
