<svg width="42" height="59" viewBox="0 0 42 59" fill="none" xmlns="http://www.w3.org/2000/svg">
<path d="M21 59C6.999 41.0345 0 28.2521 0 20.65C-4.10938e-08 17.9382 0.543181 15.253 1.59853 12.7476C2.65388 10.2422 4.20073 7.96578 6.15076 6.04825C8.10079 4.13072 10.4158 2.60965 12.9636 1.57189C15.5115 0.534128 18.2422 0 21 0C23.7578 0 26.4885 0.534128 29.0364 1.57189C31.5842 2.60965 33.8992 4.13072 35.8492 6.04825C37.7993 7.96578 39.3461 10.2422 40.4015 12.7476C41.4568 15.253 42 17.9382 42 20.65C42 28.2521 35.001 41.0345 21 59Z" fill="#85C441"/>
<path fill-rule="evenodd" clip-rule="evenodd" d="M33 22.6661L28.6905 18.6667V12.6671H25.8095V16.0005L21.5 12L10 22.6661V23.3333H12.8811V30H20.0595V25.9995H22.9405V30H30.1189V23.3333H33V22.6661Z" fill="white"/>
</svg>
