<svg width="30" height="30" viewBox="0 0 30 30" fill="none" xmlns="http://www.w3.org/2000/svg">
<g clip-path="url(#clip0)">
<path d="M30.0014 3.69231C30.0014 3.50769 29.8168 3.32308 29.6322 3.32308L2.58606 0C2.40144 0 2.30913 0 2.21683 0.0923077C2.12452 0.184615 2.12452 0.276923 2.12452 0.369231V2.76923L0.09375 6V6.09231C0.09375 6.09231 0.09375 6.09231 0.09375 6.18462V14.4923C0.09375 14.6769 0.278365 14.8615 0.462981 14.8615L2.03221 15.0462L0.186058 17.9077V18C0.09375 18 0.09375 18 0.09375 18V26.3077C0.09375 26.4923 0.278365 26.6769 0.462981 26.6769L27.6014 30C27.6937 30 27.7861 30 27.8784 29.9077C27.9707 29.8154 27.9707 29.7231 27.9707 29.6308V21.5077L30.0014 18.2769V18.1846C30.0014 18.1846 30.0014 18.1846 30.0014 18.0923V15.6C30.0014 15.4154 29.8168 15.2308 29.6322 15.2308L27.7861 15.0462V9.6L29.8168 6.36923V6.27692C29.8168 6.27692 29.8168 6.27692 29.8168 6.18462L30.0014 3.69231ZM2.86298 0.738462L29.263 3.96923V5.72308L7.8476 3.13846L2.86298 2.58462V0.738462ZM0.739904 6.55385L22.1553 9.23077L27.1399 9.87692V15.4154V17.4462L0.739904 14.1231V6.55385ZM2.67837 15.1385L27.3245 18.1846H27.4168L28.9861 18.3692L27.3245 20.9538L15.5091 19.4769L1.01683 17.8154L2.67837 15.1385ZM27.1399 29.2615L0.739904 26.0308V18.4615L22.2476 21.0462L27.2322 21.6923L27.1399 29.2615ZM29.263 15.8769V17.6308L27.8784 17.4462V15.6923L29.263 15.8769ZM27.3245 9.13846L15.5091 7.66154L0.924519 5.81538L2.58606 3.13846L14.4937 4.61538L29.0784 6.46154L27.3245 9.13846Z" fill="#842990"/>
</g>
<defs>
<clipPath id="clip0">
<rect width="30" height="30" fill="white"/>
</clipPath>
</defs>
</svg>
