<svg width="31" height="30" viewBox="0 0 31 30" fill="none" xmlns="http://www.w3.org/2000/svg">
<path d="M15.8162 25.1093C14.1687 25.1093 12.8282 23.7688 12.8282 22.1209C12.8282 20.4734 14.1687 19.1329 15.8162 19.1329C17.4637 19.1329 18.8042 20.4734 18.8042 22.1209C18.8042 23.7688 17.4637 25.1093 15.8162 25.1093ZM15.8162 19.9166C14.6008 19.9166 13.6119 20.9055 13.6119 22.1209C13.6119 23.3367 14.6008 24.3256 15.8162 24.3256C17.0316 24.3256 18.0205 23.3367 18.0205 22.1209C18.0205 20.9055 17.0316 19.9166 15.8162 19.9166Z" fill="#842990"/>
<path d="M21.0878 19.1727C19.9045 17.4074 17.9348 16.3534 15.8189 16.3534C13.703 16.3534 11.7333 17.4074 10.5501 19.1727L9.89872 18.7364C11.2282 16.7533 13.4413 15.5697 15.8189 15.5697C18.1965 15.5697 20.4096 16.7533 21.7391 18.7364L21.0878 19.1727Z" fill="#842990"/>
<path d="M24.0936 17.0274C22.215 14.2915 19.1214 12.6582 15.8176 12.6582C12.5139 12.6582 9.42021 14.2915 7.5416 17.0274L6.89562 16.5834C8.92042 13.6348 12.2556 11.8745 15.8176 11.8745C19.3797 11.8745 22.7148 13.6348 24.7396 16.5834L24.0936 17.0274Z" fill="#842990"/>
<path d="M26.9909 14.9572C24.4414 11.2864 20.2643 9.09477 15.8171 9.09477C11.3699 9.09477 7.19286 11.2864 4.64339 14.9572L3.99971 14.5102C6.69537 10.6284 11.1131 8.31103 15.8171 8.31103C20.5211 8.31103 24.9389 10.6284 27.6345 14.5102L26.9909 14.9572Z" fill="#842990"/>
<path d="M29.9986 12.8099C26.7541 8.16981 21.4539 5.39953 15.8204 5.39953C10.1868 5.39953 4.88658 8.16981 1.64215 12.8099L1 12.3606C4.39062 7.51101 9.93079 4.61578 15.8204 4.61578C21.7099 4.61578 27.2501 7.51101 30.6407 12.3606L29.9986 12.8099Z" fill="#842990"/>
<path d="M15.8162 25.1093C14.1687 25.1093 12.8282 23.7688 12.8282 22.1209C12.8282 20.4734 14.1687 19.1329 15.8162 19.1329C17.4637 19.1329 18.8042 20.4734 18.8042 22.1209C18.8042 23.7688 17.4637 25.1093 15.8162 25.1093ZM15.8162 19.9166C14.6008 19.9166 13.6119 20.9055 13.6119 22.1209C13.6119 23.3367 14.6008 24.3256 15.8162 24.3256C17.0316 24.3256 18.0205 23.3367 18.0205 22.1209C18.0205 20.9055 17.0316 19.9166 15.8162 19.9166Z" stroke="#842990" stroke-width="0.3"/>
<path d="M21.0878 19.1727C19.9045 17.4074 17.9348 16.3534 15.8189 16.3534C13.703 16.3534 11.7333 17.4074 10.5501 19.1727L9.89872 18.7364C11.2282 16.7533 13.4413 15.5697 15.8189 15.5697C18.1965 15.5697 20.4096 16.7533 21.7391 18.7364L21.0878 19.1727Z" stroke="#842990" stroke-width="0.3"/>
<path d="M24.0936 17.0274C22.215 14.2915 19.1214 12.6582 15.8176 12.6582C12.5139 12.6582 9.42021 14.2915 7.5416 17.0274L6.89562 16.5834C8.92042 13.6348 12.2556 11.8745 15.8176 11.8745C19.3797 11.8745 22.7148 13.6348 24.7396 16.5834L24.0936 17.0274Z" stroke="#842990" stroke-width="0.3"/>
<path d="M26.9909 14.9572C24.4414 11.2864 20.2643 9.09477 15.8171 9.09477C11.3699 9.09477 7.19286 11.2864 4.64339 14.9572L3.99971 14.5102C6.69537 10.6284 11.1131 8.31103 15.8171 8.31103C20.5211 8.31103 24.9389 10.6284 27.6345 14.5102L26.9909 14.9572Z" stroke="#842990" stroke-width="0.3"/>
<path d="M29.9986 12.8099C26.7541 8.16981 21.4539 5.39953 15.8204 5.39953C10.1868 5.39953 4.88658 8.16981 1.64215 12.8099L1 12.3606C4.39062 7.51101 9.93079 4.61578 15.8204 4.61578C21.7099 4.61578 27.2501 7.51101 30.6407 12.3606L29.9986 12.8099Z" stroke="#842990" stroke-width="0.3"/>
</svg>
