<svg width="30" height="30" viewBox="0 0 30 30" fill="none" xmlns="http://www.w3.org/2000/svg">
<path d="M27.3244 14.1493L27.0588 13.8806L26.3504 13.1642V1.34328C26.3504 0.626866 25.7306 0 25.0222 0C24.3138 0 23.694 0.626866 23.694 1.34328H23.6055C23.6055 1.34328 23.5169 1.34328 23.4284 1.43284H23.3398C23.2513 1.43284 23.1627 1.43284 23.1627 1.43284C23.1627 1.43284 23.0742 1.43284 22.9856 1.43284H22.8971H22.8085V1.34328C22.8085 0.626866 22.1887 0 21.4803 0C20.772 0 20.1521 0.626866 20.1521 1.34328H20.0636C20.0636 1.34328 19.975 1.34328 19.8865 1.43284H19.7979C19.7094 1.43284 19.6208 1.43284 19.6208 1.43284C19.6208 1.43284 19.5323 1.43284 19.4438 1.43284H19.3552H19.2667V1.34328C19.2667 0.626866 18.6468 0 17.9385 0C17.2301 0 16.6102 0.626866 16.6102 1.34328H16.5217C16.5217 1.34328 16.4332 1.34328 16.3446 1.43284H16.2561C16.1675 1.43284 16.079 1.43284 16.079 1.43284C16.079 1.43284 15.9904 1.43284 15.9019 1.43284H15.8133H15.7248V1.34328C15.7248 0.626866 15.1049 0 14.3966 0C13.6882 0 13.0684 0.626866 13.0684 1.34328H12.9798C12.9798 1.34328 12.8913 1.34328 12.8027 1.43284H12.7142C12.6256 1.43284 12.5371 1.43284 12.5371 1.43284C12.5371 1.43284 12.4485 1.43284 12.36 1.43284H12.2714H12.1829V1.34328C12.1829 0.626866 11.5631 0 10.8547 0C10.1463 0 9.52649 0.626866 9.52649 1.34328H9.43794C9.43794 1.34328 9.3494 1.34328 9.26085 1.43284H9.1723C9.08376 1.43284 8.99521 1.43284 8.99521 1.43284C8.99521 1.43284 8.90666 1.43284 8.81812 1.43284H8.72957H8.64102V1.34328C8.64102 0.626866 8.02119 0 7.31282 0C6.60444 0 5.98461 0.626866 5.98461 1.34328H5.89607C5.89607 1.34328 5.80752 1.34328 5.71897 1.43284H5.63043C5.54188 1.43284 5.45333 1.43284 5.45333 1.43284C5.45333 1.43284 5.36478 1.43284 5.27624 1.43284H5.18769H5.09914V1.34328C5.09914 0.626866 4.47931 0 3.77094 0C3.06256 0 2.44273 0.626866 2.44273 1.34328V24.7164C2.44273 24.9851 2.53128 25.1642 2.61983 25.3433C2.26564 25.4328 2 25.791 2 26.2388C2 26.597 2.17709 26.9552 2.53128 27.1343C2.26564 27.403 2.08855 27.7612 2.08855 28.209C2.08855 29.1045 2.79692 29.7313 3.59385 29.7313C4.39077 29.7313 5.09914 29.0149 5.09914 28.209C5.09914 27.8507 4.92205 27.4925 4.74496 27.2239C5.18769 27.1343 5.45333 26.7761 5.45333 26.3284C5.45333 25.8806 5.18769 25.5224 4.8335 25.4328C4.92205 25.2537 5.0106 25.0746 5.0106 24.8955H5.09914H5.18769C5.27624 24.8955 5.36478 24.8955 5.36478 24.8955C5.36478 24.8955 5.45333 24.8955 5.54188 24.8955H5.63043C5.71897 24.8955 5.80752 24.8955 5.80752 24.9851H5.89607C5.98461 25.6119 6.51589 26.1493 7.22427 26.1493C7.93265 26.1493 8.46393 25.6119 8.55247 24.9851C8.55247 24.9851 8.64102 24.9851 8.72957 24.8955H8.81812C8.90666 24.8955 8.99521 24.8955 8.99521 24.8955C8.99521 24.8955 9.08376 24.8955 9.1723 24.8955H9.26085C9.3494 24.8955 9.3494 24.8955 9.43794 24.9851C9.52649 25.7015 10.0578 26.2388 10.7661 26.2388C11.4745 26.2388 12.0058 25.7015 12.0944 24.9851H12.1829H12.2714C12.36 24.9851 12.4485 24.9851 12.4485 24.9851C12.4485 24.9851 12.5371 24.9851 12.6256 24.9851H12.7142C12.8027 24.9851 12.8913 24.9851 12.8913 25.0746H12.9798C13.0684 25.7015 13.5997 26.2388 14.308 26.2388C15.0164 26.2388 15.5477 25.7015 15.6362 24.9851H15.7248H15.8133C15.9019 24.9851 15.9904 24.9851 15.9904 24.9851C15.9904 24.9851 16.079 24.9851 16.1675 24.9851H16.2561C16.3446 24.9851 16.4332 24.9851 16.4332 25.0746H16.5217C16.6102 25.7015 17.1415 26.2388 17.8499 26.2388C18.5583 26.2388 19.0896 25.7015 19.1781 24.9851H19.2667H19.3552C19.4438 24.9851 19.5323 24.9851 19.5323 24.9851C19.5323 24.9851 19.6208 24.9851 19.7094 24.9851H19.7979C19.8865 24.9851 19.975 24.9851 19.975 25.0746H20.0636C20.1521 25.7015 20.6834 26.2388 21.3918 26.2388C22.1002 26.2388 22.6314 25.7015 22.72 24.9851H22.8085H22.8971C22.9856 24.9851 23.0742 24.9851 23.0742 24.9851C23.0742 24.9851 23.1627 24.9851 23.2513 24.9851H23.3398C23.4284 24.9851 23.5169 24.9851 23.5169 25.0746H23.6055C23.6055 25.2537 23.694 25.4328 23.7826 25.6119C23.4284 25.7015 23.1627 26.0597 23.1627 26.5075C23.1627 26.8657 23.3398 27.2239 23.694 27.403C23.4284 27.6716 23.2513 28.0299 23.2513 28.4776C23.2513 29.3731 23.9596 30 24.7566 30C25.642 30 26.2619 29.2836 26.2619 28.4776C26.2619 28.1194 26.0848 27.7612 25.9077 27.4925C26.3504 27.403 26.6161 27.0448 26.6161 26.597C26.6161 26.1493 26.3504 25.791 25.9962 25.7015C26.0848 25.5224 26.1733 25.2537 26.1733 25.0746V24.0896L26.8817 23.3731L27.1473 23.1045C27.413 22.8358 27.5015 22.4776 27.5015 22.209V15.4925C27.7672 14.6866 27.5901 14.3284 27.3244 14.1493ZM3.15111 1.34328C3.15111 0.985075 3.41675 0.716418 3.77094 0.716418C4.12513 0.716418 4.39077 0.985075 4.39077 1.34328V24.7164C4.39077 25.0746 4.12513 25.3433 3.77094 25.3433C3.41675 25.3433 3.15111 25.0746 3.15111 24.7164V1.34328ZM3.68239 29.0149C3.23966 29.0149 2.88547 28.6567 2.88547 28.209C2.88547 27.7612 3.23966 27.403 3.68239 27.403C4.12513 27.403 4.47931 27.7612 4.47931 28.209C4.47931 28.6567 4.12513 29.0149 3.68239 29.0149ZM4.56786 26.5075H2.97402C2.88547 26.5075 2.70838 26.4179 2.70838 26.2388C2.70838 26.1493 2.79692 25.9702 2.97402 25.9702H4.65641C4.74496 25.9702 4.92205 26.0597 4.92205 26.2388C4.8335 26.4179 4.74496 26.5075 4.56786 26.5075ZM5.89607 24.0896C5.80752 24.0896 5.80752 24.0896 5.71897 24.0896C5.63043 24.0896 5.54188 24.0896 5.45333 24.0896C5.36478 24.0896 5.27624 24.0896 5.18769 24.0896V2.0597C5.27624 2.0597 5.36478 2.0597 5.45333 2.0597C5.54188 2.0597 5.63043 2.0597 5.71897 2.0597C5.80752 2.0597 5.80752 2.0597 5.89607 2.0597C5.98461 2.0597 5.98461 2.0597 6.07316 2.0597V24.0896C5.98461 24.0896 5.89607 24.0896 5.89607 24.0896ZM7.93265 24.7164C7.93265 25.0746 7.66701 25.3433 7.31282 25.3433C6.95863 25.3433 6.69299 25.0746 6.69299 24.7164V1.34328C6.69299 0.985075 6.95863 0.716418 7.31282 0.716418C7.66701 0.716418 7.93265 0.985075 7.93265 1.34328V24.7164ZM9.43794 24C9.3494 24 9.26085 24 9.1723 24C9.08376 24 8.99521 24 8.90666 24C8.81812 24 8.81812 24 8.72957 24V2.0597C8.81812 2.0597 8.90666 2.0597 8.99521 2.0597C9.08376 2.0597 9.1723 2.0597 9.26085 2.0597C9.3494 2.0597 9.3494 2.0597 9.43794 2.0597C9.52649 2.0597 9.52649 2.0597 9.61504 2.0597V24.0896C9.52649 24.0896 9.43794 24 9.43794 24ZM11.4745 24.7164C11.4745 25.0746 11.2089 25.3433 10.8547 25.3433C10.5005 25.3433 10.2349 25.0746 10.2349 24.7164V1.34328C10.2349 0.985075 10.5005 0.716418 10.8547 0.716418C11.2089 0.716418 11.4745 0.985075 11.4745 1.34328V24.7164ZM12.9798 24.0896C12.8913 24.0896 12.8913 24.0896 12.8027 24.0896C12.7142 24.0896 12.6256 24.0896 12.5371 24.0896C12.4485 24.0896 12.36 24.0896 12.2714 24.0896V2.0597C12.36 2.0597 12.5371 2.0597 12.5371 2.0597C12.6256 2.0597 12.7142 2.0597 12.8027 2.0597C12.8913 2.0597 12.8913 2.0597 12.9798 2.0597C13.0684 2.0597 13.0684 2.0597 13.1569 2.0597V24.0896C13.0684 24.0896 12.9798 24.0896 12.9798 24.0896ZM15.0164 24.7164C15.0164 25.0746 14.7508 25.3433 14.3966 25.3433C14.0424 25.3433 13.7767 25.0746 13.7767 24.7164V1.34328C13.7767 0.985075 14.0424 0.716418 14.3966 0.716418C14.7508 0.716418 15.0164 0.985075 15.0164 1.34328V24.7164ZM16.5217 24.0896C16.4332 24.0896 16.4332 24.0896 16.3446 24.0896C16.2561 24.0896 16.1675 24.0896 16.079 24.0896C15.9904 24.0896 15.9019 24.0896 15.8133 24.0896V2.0597C15.9019 2.0597 15.9904 2.0597 16.079 2.0597C16.1675 2.0597 16.2561 2.0597 16.3446 2.0597C16.4332 2.0597 16.4332 2.0597 16.5217 2.0597C16.6102 2.0597 16.6102 2.0597 16.6988 2.0597V24.0896C16.6102 24.0896 16.5217 24.0896 16.5217 24.0896ZM18.5583 24.7164C18.5583 25.0746 18.2926 25.3433 17.9385 25.3433C17.5843 25.3433 17.3186 25.0746 17.3186 24.7164V1.34328C17.3186 0.985075 17.5843 0.716418 17.9385 0.716418C18.2926 0.716418 18.5583 0.985075 18.5583 1.34328V24.7164ZM20.0636 24.0896C19.975 24.0896 19.975 24.0896 19.8865 24.0896C19.7979 24.0896 19.7094 24.0896 19.6208 24.0896C19.5323 24.0896 19.4438 24.0896 19.3552 24.0896V2.0597C19.4438 2.0597 19.5323 2.0597 19.6208 2.0597C19.7094 2.0597 19.7979 2.0597 19.8865 2.0597C19.975 2.0597 19.975 2.0597 20.0636 2.0597C20.1521 2.0597 20.1521 2.0597 20.2407 2.0597V24.0896C20.1521 24.0896 20.0636 24.0896 20.0636 24.0896ZM24.4024 1.34328C24.4024 0.985075 24.668 0.716418 25.0222 0.716418C25.3764 0.716418 25.642 0.985075 25.642 1.34328V24.7164C25.642 25.0746 25.3764 25.3433 25.0222 25.3433C24.668 25.3433 24.4024 25.0746 24.4024 24.7164V1.34328ZM22.1002 24.7164C22.1002 25.0746 21.8345 25.3433 21.4803 25.3433C21.1261 25.3433 20.8605 25.0746 20.8605 24.7164V1.34328C20.8605 0.985075 21.1261 0.716418 21.4803 0.716418C21.8345 0.716418 22.1002 0.985075 22.1002 1.34328V24.7164ZM23.6055 24.0896C23.5169 24.0896 23.5169 24.0896 23.4284 24.0896C23.3398 24.0896 23.2513 24.0896 23.1627 24.0896C23.0742 24.0896 22.9856 24.0896 22.8971 24.0896V2.0597C22.9856 2.0597 23.0742 2.0597 23.1627 2.0597C23.2513 2.0597 23.3398 2.0597 23.4284 2.0597C23.5169 2.0597 23.5169 2.0597 23.6055 2.0597C23.694 2.0597 23.694 2.0597 23.7826 2.0597V24.0896C23.694 24.0896 23.6055 24.0896 23.6055 24.0896ZM24.9337 29.0149C24.4909 29.0149 24.1367 28.6567 24.1367 28.209C24.1367 27.7612 24.4909 27.403 24.9337 27.403C25.3764 27.403 25.7306 27.7612 25.7306 28.209C25.7306 28.6567 25.3764 29.0149 24.9337 29.0149ZM25.8191 26.5075H24.1367C24.0482 26.5075 23.8711 26.4179 23.8711 26.2388C23.8711 26.1493 23.9596 25.9702 24.1367 25.9702H25.8191C25.9077 25.9702 26.0848 26.0597 26.0848 26.2388C26.0848 26.4179 25.9962 26.5075 25.8191 26.5075ZM27.0588 21.7612C27.0588 21.8507 26.9702 22.0299 26.8817 22.209L26.6161 22.4776V14.3284L26.8817 14.597C26.9702 14.6866 27.0588 14.8657 27.0588 15.0448V21.7612Z" fill="#842990"/>
</svg>
