<svg width="29" height="30" viewBox="0 0 29 30" fill="none" xmlns="http://www.w3.org/2000/svg">
<g clip-path="url(#clip0)">
<g opacity="0.898">
<path d="M27.7395 30.0872H1.34727C1.17363 30.0872 1 29.9128 1 29.7384V0.348859C1 0.17444 1.17363 0 1.34727 0H27.7395C27.9132 0 28.0868 0.17444 28.0868 0.348859V29.7384C28 29.9128 27.9132 30.0872 27.7395 30.0872ZM1.60772 29.3895H27.3923V0.610476H1.60772V29.3895Z" fill="white"/>
</g>
<g opacity="0.898">
<path d="M25.9175 28.5174H3.17149C2.99785 28.5174 2.82422 28.343 2.82422 28.1686V1.65696C2.82422 1.48255 2.99785 1.30811 3.17149 1.30811H25.9175C26.0911 1.30811 26.2647 1.48255 26.2647 1.65696V28.1686C26.2647 28.4302 26.0911 28.5174 25.9175 28.5174ZM3.51875 27.9069H25.5702V2.09301H3.51875V27.9069Z" fill="white"/>
</g>
<g opacity="0.898">
<path d="M14.8896 28.5174H13.4137C13.24 28.5174 13.0664 28.343 13.0664 28.1686V1.8314C13.0664 1.65698 13.24 1.48254 13.4137 1.48254H14.8896C15.0632 1.48254 15.2368 1.65698 15.2368 1.8314V28.1686C15.15 28.343 15.0632 28.5174 14.8896 28.5174ZM13.7609 27.8198H14.5423V2.09302H13.7609V27.8198Z" fill="white"/>
</g>
<path d="M21.7002 6.18614L18.207 9.58276L18.4486 9.83342L21.9417 6.43679L21.7002 6.18614Z" fill="white"/>
<path d="M24.714 6.14831L17.8711 13.3313L18.122 13.5725L24.9648 6.38947L24.714 6.14831Z" fill="white"/>
<path d="M11.208 22.6586L7.71484 26.0552L7.95635 26.3059L11.4495 22.9092L11.208 22.6586Z" fill="white"/>
<path d="M11.214 18.8332L4.37109 26.0162L4.62201 26.2574L11.4649 19.0744L11.214 18.8332Z" fill="white"/>
<g opacity="0.898">
<path d="M13.6751 16.2209H12.1992V12.0349H13.6751V16.2209ZM12.8069 15.6105H13.0674V12.7326H12.8069V15.6105Z" fill="white"/>
</g>
<g opacity="0.898">
<path d="M16.1907 16.221H14.7148V12.0349H16.1907V16.221ZM15.2357 15.6105H15.4962V12.7326H15.2357V15.6105Z" fill="white"/>
</g>
</g>
<defs>
<clipPath id="clip0">
<rect width="29" height="30" fill="white"/>
</clipPath>
</defs>
</svg>
