<svg width="30" height="30" viewBox="0 0 30 30" fill="none" xmlns="http://www.w3.org/2000/svg">
<path d="M9.17191 13.3863C9.14209 13.2918 9.08273 13.2091 9.00236 13.15C8.92198 13.091 8.82473 13.0586 8.72455 13.0575C8.62298 13.0499 8.52191 13.0776 8.43883 13.1358C8.35574 13.194 8.29588 13.2791 8.2696 13.3763C7.74646 14.7851 7.07277 16.1348 6.25996 17.4025C3.99912 20.9319 3 22.5625 3 24.2075C3 27.6181 5.35133 30 8.71886 30C12.0864 30 14.4383 27.6181 14.4383 24.2075C14.4383 22.605 13.5829 21.0294 11.174 17.395C10.3418 16.1454 9.66931 14.799 9.17191 13.3863V13.3863ZM8.71886 29.0625C5.91068 29.0625 3.94914 27.0663 3.94914 24.2075C3.94914 22.8225 4.90333 21.2738 7.0623 17.9038C7.69027 16.9196 8.24131 15.8895 8.71063 14.8225C9.17447 15.8981 9.73324 16.9312 10.3805 17.91C12.573 21.2169 13.4898 22.8231 13.4898 24.2075C13.4898 27.0663 11.5277 29.0625 8.71886 29.0625Z" fill="white"/>
<path d="M9.3739 27.4494C9.25645 27.4685 9.15056 27.5305 9.07724 27.6232C9.00393 27.7158 8.96854 27.8323 8.9781 27.9495C8.98765 28.0667 9.04146 28.1761 9.12884 28.2559C9.21622 28.3358 9.33079 28.3803 9.44984 28.3806C9.4757 28.3807 9.50153 28.3786 9.52703 28.3744C11.5803 28.0425 12.856 26.4456 12.856 24.2075C12.8237 23.5725 12.6525 22.9521 12.3542 22.3887C12.3012 22.2759 12.2051 22.1885 12.0869 22.1458C11.9687 22.103 11.8382 22.1083 11.724 22.1606C11.6098 22.2129 11.5213 22.3079 11.478 22.4246C11.4346 22.5414 11.4401 22.6703 11.493 22.7831C11.7309 23.2239 11.8719 23.7092 11.9068 24.2075C11.9068 25.9806 10.9602 27.1931 9.3739 27.4494Z" fill="white"/>
<path d="M28.785 5.69062H24.4823V5.64875C24.482 5.36557 24.3679 5.09408 24.1652 4.89384C23.9625 4.6936 23.6876 4.58096 23.4009 4.58062H22.8295V3.6875H24.9866C25.3457 3.6875 25.6902 3.54659 25.9441 3.29576C26.198 3.04493 26.3407 2.70473 26.3407 2.35C26.3407 1.99527 26.198 1.65507 25.9441 1.40424C25.6902 1.15341 25.3457 1.0125 24.9866 1.0125H22.8295V0.46875C22.8295 0.34443 22.7795 0.225201 22.6905 0.137294C22.6015 0.049386 22.4808 0 22.355 0L18.8622 0C18.7363 0 18.6156 0.049386 18.5266 0.137294C18.4376 0.225201 18.3876 0.34443 18.3876 0.46875V1.01H16.2299C15.8708 1.01 15.5263 1.15091 15.2724 1.40174C15.0184 1.65257 14.8758 1.99277 14.8758 2.3475C14.8758 2.70223 15.0184 3.04243 15.2724 3.29326C15.5263 3.54409 15.8708 3.685 16.2299 3.685H18.3863V4.58062H17.8105C17.5238 4.58096 17.249 4.6936 17.0462 4.89384C16.8435 5.09408 16.7295 5.36557 16.7291 5.64875V5.69062H13.8722C12.5806 5.69261 11.3425 6.20028 10.4293 7.10236C9.51598 8.00445 9.00201 9.22738 9 10.5031V11.6875C9 11.8118 9.05 11.931 9.139 12.019C9.228 12.1069 9.3487 12.1563 9.47457 12.1563H12.4998C12.6256 12.1563 12.7464 12.1069 12.8353 12.019C12.9243 11.931 12.9743 11.8118 12.9743 11.6875V10.6675C12.9747 10.3895 13.0863 10.123 13.2849 9.92606C13.4834 9.72911 13.7528 9.61774 14.0342 9.61625H16.7266V9.67875C16.7263 9.81945 16.7542 9.95881 16.8086 10.0888C16.863 10.2189 16.9428 10.3371 17.0435 10.4366C17.1442 10.5361 17.2637 10.615 17.3954 10.6688C17.527 10.7226 17.6681 10.7502 17.8105 10.75H23.4041C23.6908 10.7497 23.9656 10.637 24.1684 10.4368C24.3711 10.2365 24.4851 9.96506 24.4855 9.68188V9.6475H28.7882C28.9141 9.6475 29.0348 9.59811 29.1238 9.51021C29.2128 9.4223 29.2628 9.30307 29.2628 9.17875V6.15937C29.2628 6.09755 29.2504 6.03634 29.2264 5.97927C29.2023 5.92219 29.1671 5.87038 29.1227 5.82681C29.0783 5.78324 29.0256 5.74878 28.9676 5.72541C28.9097 5.70203 28.8476 5.69021 28.785 5.69062ZM18.8609 2.75H16.2299C16.1225 2.75 16.0195 2.70786 15.9435 2.63284C15.8676 2.55783 15.8249 2.45609 15.8249 2.35C15.8249 2.24391 15.8676 2.14217 15.9435 2.06716C16.0195 1.99214 16.1225 1.95 16.2299 1.95H18.8609C18.9867 1.95 19.1075 1.90061 19.1965 1.81271C19.2855 1.7248 19.3355 1.60557 19.3355 1.48125V0.9375H21.8804V1.47875C21.8804 1.60307 21.9304 1.7223 22.0194 1.81021C22.1084 1.89811 22.2291 1.9475 22.355 1.9475H24.9866C25.0398 1.9475 25.0924 1.95785 25.1416 1.97795C25.1907 1.99805 25.2354 2.02751 25.273 2.06466C25.3106 2.1018 25.3404 2.1459 25.3607 2.19443C25.3811 2.24296 25.3916 2.29497 25.3916 2.3475C25.3916 2.40003 25.3811 2.45204 25.3607 2.50057C25.3404 2.5491 25.3106 2.5932 25.273 2.63034C25.2354 2.66749 25.1907 2.69695 25.1416 2.71705C25.0924 2.73715 25.0398 2.7475 24.9866 2.7475H22.3537C22.2278 2.7475 22.1071 2.79689 22.0181 2.88479C21.9291 2.9727 21.8791 3.09193 21.8791 3.21625V4.58062H19.3355V3.21625C19.3348 3.09236 19.2845 2.97378 19.1956 2.88641C19.1066 2.79904 18.9863 2.75 18.8609 2.75V2.75ZM14.0342 8.67875C13.5004 8.67925 12.9885 8.88893 12.6111 9.26179C12.2336 9.63465 12.0213 10.1402 12.0208 10.6675V11.2206H9.94724V10.505C9.94891 9.47779 10.3628 8.49313 11.0981 7.76679C11.8335 7.04044 12.8304 6.63165 13.8703 6.63H16.7272V8.68062L14.0342 8.67875ZM23.5338 9.67875C23.5338 9.71339 23.5199 9.74662 23.4951 9.77112C23.4703 9.79561 23.4366 9.80937 23.4015 9.80937H17.808C17.7729 9.80937 17.7393 9.79561 17.7145 9.77112C17.6897 9.74662 17.6757 9.71339 17.6757 9.67875V5.64875C17.6759 5.61416 17.6899 5.58103 17.7146 5.55657C17.7394 5.5321 17.773 5.51829 17.808 5.51813H23.4015C23.4366 5.51829 23.4701 5.5321 23.4949 5.55657C23.5196 5.58103 23.5336 5.61416 23.5338 5.64875V9.67938V9.67875ZM28.3079 8.70687H24.4855V6.62812H28.3105L28.3079 8.70687Z" fill="white"/>
</svg>
