<svg width="30" height="27" viewBox="0 0 30 27" fill="none" xmlns="http://www.w3.org/2000/svg">
<g clip-path="url(#clip0)">
<path d="M22.7778 27H0.238095C0.0793651 27 0 26.925 0 26.775V23.7C0 23.55 0.0793651 23.475 0.238095 23.475H22.7778C22.9365 23.475 23.0159 23.55 23.0159 23.7V26.775C23.0159 26.925 22.8571 27 22.7778 27ZM0.476191 26.55H22.5397V23.925H0.476191V26.55Z" fill="white"/>
<path d="M26.0317 23.925H3.492C3.33327 23.925 3.25391 23.85 3.25391 23.7V20.625C3.25391 20.475 3.33327 20.4 3.492 20.4H26.0317C26.1904 20.4 26.2698 20.475 26.2698 20.625V23.7C26.2698 23.775 26.1904 23.925 26.0317 23.925ZM3.7301 23.475H25.7936V20.85H3.7301V23.475Z" fill="white"/>
<path d="M22.7778 20.775H0.238095C0.0793651 20.775 0 20.7 0 20.55V17.475C0 17.325 0.0793651 17.25 0.238095 17.25H22.7778C22.9365 17.25 23.0159 17.325 23.0159 17.475V20.55C23.0159 20.7 22.8571 20.775 22.7778 20.775ZM0.476191 20.325H22.5397V17.7H0.476191V20.325Z" fill="white"/>
<path d="M26.0317 17.7H3.492C3.33327 17.7 3.25391 17.625 3.25391 17.475V14.4C3.25391 14.25 3.33327 14.175 3.492 14.175H26.0317C26.1904 14.175 26.2698 14.25 26.2698 14.4V17.475C26.2698 17.625 26.1904 17.7 26.0317 17.7ZM3.7301 17.25H25.7936V14.625H3.7301V17.25Z" fill="white"/>
<path d="M26.0308 14.625C25.9514 14.625 25.872 14.625 25.872 14.55C25.7927 14.475 25.7927 14.325 25.872 14.25L26.3482 13.8C26.4276 13.725 26.5863 13.725 26.6657 13.8C26.745 13.875 26.745 14.025 26.6657 14.1L26.1895 14.55C26.1101 14.55 26.1101 14.625 26.0308 14.625Z" fill="white"/>
<path d="M3.49169 14.625C3.41233 14.625 3.33296 14.625 3.33296 14.55C3.2536 14.475 3.2536 14.325 3.33296 14.25L4.28534 13.35C4.36471 13.275 4.52344 13.275 4.6028 13.35C4.68217 13.425 4.68217 13.575 4.6028 13.65L3.65042 14.55C3.65042 14.55 3.57106 14.625 3.49169 14.625Z" fill="white"/>
<path d="M26.9848 13.725H4.44513C4.2864 13.725 4.20703 13.65 4.20703 13.5C4.20703 13.35 4.2864 13.275 4.44513 13.275H26.9848C27.1435 13.275 27.2229 13.35 27.2229 13.5C27.2229 13.65 27.0642 13.725 26.9848 13.725Z" fill="white"/>
<path d="M0.237785 17.7C0.15842 17.7 0.0790551 17.7 0.0790551 17.625C-0.000310023 17.55 -0.000310023 17.4 0.0790551 17.325L1.03144 16.425C1.1108 16.35 1.26953 16.35 1.3489 16.425C1.42826 16.5 1.42826 16.65 1.3489 16.725L0.396515 17.625C0.31715 17.7 0.31715 17.7 0.237785 17.7Z" fill="white"/>
<path d="M3.01662 16.8H1.19122C1.03249 16.8 0.953125 16.725 0.953125 16.575C0.953125 16.425 1.03249 16.35 1.19122 16.35H3.09598C3.25471 16.35 3.33408 16.425 3.33408 16.575C3.25471 16.725 3.17535 16.8 3.01662 16.8Z" fill="white"/>
<path d="M0.237785 23.925C0.15842 23.925 0.0790551 23.925 0.0790551 23.85C-0.000310023 23.775 -0.000310023 23.625 0.0790551 23.55L1.03144 22.65C1.1108 22.575 1.26953 22.575 1.3489 22.65C1.42826 22.725 1.42826 22.875 1.3489 22.95L0.396515 23.85C0.31715 23.85 0.31715 23.925 0.237785 23.925Z" fill="white"/>
<path d="M3.01662 23.025H1.19122C1.03249 23.025 0.953125 22.95 0.953125 22.8C0.953125 22.65 1.03249 22.575 1.19122 22.575H3.09598C3.25471 22.575 3.33408 22.65 3.33408 22.8C3.25471 22.875 3.17535 23.025 3.01662 23.025Z" fill="white"/>
<path d="M18.4917 14.625C18.4123 14.625 18.333 14.625 18.333 14.55C18.2536 14.475 18.2536 14.325 18.333 14.25L18.8092 13.8C18.8885 13.725 19.0472 13.725 19.1266 13.8C19.206 13.875 19.206 14.025 19.1266 14.1L18.6504 14.55C18.6504 14.55 18.5711 14.625 18.4917 14.625Z" fill="white"/>
<path d="M11.0308 14.625C10.9514 14.625 10.872 14.625 10.872 14.55C10.7927 14.475 10.7927 14.325 10.872 14.25L11.3482 13.8C11.4276 13.725 11.5863 13.725 11.6657 13.8C11.745 13.875 11.745 14.025 11.6657 14.1L11.1895 14.55C11.1101 14.55 11.1101 14.625 11.0308 14.625Z" fill="white"/>
<path d="M26.0308 17.7C25.9514 17.7 25.872 17.7 25.872 17.625C25.7927 17.55 25.7927 17.4 25.872 17.325L26.8244 16.425C26.9038 16.35 27.0625 16.35 27.1419 16.425C27.2212 16.5 27.2212 16.65 27.1419 16.725L26.1895 17.625C26.1101 17.7 26.1101 17.7 26.0308 17.7Z" fill="white"/>
<path d="M22.7768 20.775C22.6975 20.775 22.6181 20.775 22.6181 20.7C22.5388 20.625 22.5388 20.475 22.6181 20.4L23.5705 19.5C23.6499 19.425 23.8086 19.425 23.888 19.5C23.9673 19.575 23.9673 19.725 23.888 19.8L22.9356 20.7C22.8562 20.775 22.7768 20.775 22.7768 20.775Z" fill="white"/>
<path d="M26.9842 16.8C26.8255 16.8 26.7461 16.725 26.7461 16.575V13.5C26.7461 13.35 26.8255 13.275 26.9842 13.275C27.1429 13.275 27.2223 13.35 27.2223 13.5V16.575C27.2223 16.725 27.0636 16.8 26.9842 16.8Z" fill="white"/>
<path d="M26.0308 20.775C25.9514 20.775 25.872 20.775 25.872 20.7C25.7927 20.625 25.7927 20.475 25.872 20.4L26.3482 19.95C26.4276 19.875 26.5863 19.875 26.6657 19.95C26.745 20.025 26.745 20.175 26.6657 20.25L26.1895 20.7C26.1101 20.775 26.1101 20.775 26.0308 20.775Z" fill="white"/>
<path d="M26.9846 19.875H24.2068C24.0481 19.875 23.9688 19.8 23.9688 19.65C23.9688 19.5 24.0481 19.425 24.2068 19.425H26.9846C27.1434 19.425 27.2227 19.5 27.2227 19.65C27.2227 19.8 27.064 19.875 26.9846 19.875Z" fill="white"/>
<path d="M26.0308 23.925C25.9514 23.925 25.872 23.925 25.872 23.85C25.7927 23.775 25.7927 23.625 25.872 23.55L26.8244 22.65C26.9038 22.575 27.0625 22.575 27.1419 22.65C27.2212 22.725 27.2212 22.875 27.1419 22.95L26.1895 23.85C26.1101 23.85 26.1101 23.925 26.0308 23.925Z" fill="white"/>
<path d="M26.9842 23.025C26.8255 23.025 26.7461 22.95 26.7461 22.8V19.725C26.7461 19.575 26.8255 19.5 26.9842 19.5C27.1429 19.5 27.2223 19.575 27.2223 19.725V22.8C27.2223 22.875 27.0636 23.025 26.9842 23.025Z" fill="white"/>
<path d="M23.6522 19.875C23.4934 19.875 23.4141 19.8 23.4141 19.65V17.85C23.4141 17.7 23.4934 17.625 23.6522 17.625C23.8109 17.625 23.8903 17.7 23.8903 17.85V19.65C23.8903 19.8 23.8109 19.875 23.6522 19.875Z" fill="white"/>
<path d="M22.7768 27C22.6975 27 22.6181 27 22.6181 26.925C22.5388 26.85 22.5388 26.7 22.6181 26.625L23.5705 25.725C23.6499 25.65 23.8086 25.65 23.888 25.725C23.9673 25.8 23.9673 25.95 23.888 26.025L22.9356 26.925C22.8562 27 22.7768 27 22.7768 27Z" fill="white"/>
<path d="M23.6522 26.1C23.4934 26.1 23.4141 26.025 23.4141 25.875V24.075C23.4141 23.925 23.4934 23.85 23.6522 23.85C23.8109 23.85 23.8903 23.925 23.8903 24.075V25.875C23.8903 26.025 23.8109 26.1 23.6522 26.1Z" fill="white"/>
<path d="M7.69903 20.325C7.5403 20.325 7.46094 20.25 7.46094 20.1V17.85C7.46094 17.7 7.5403 17.625 7.69903 17.625C7.85776 17.625 7.93713 17.7 7.93713 17.85V20.1C7.93713 20.25 7.85776 20.325 7.69903 20.325Z" fill="white"/>
<path d="M11.0311 17.25C10.8723 17.25 10.793 17.175 10.793 17.025V14.775C10.793 14.625 10.8723 14.55 11.0311 14.55C11.1898 14.55 11.2692 14.625 11.2692 14.775V17.025C11.2692 17.175 11.1104 17.25 11.0311 17.25Z" fill="white"/>
<path d="M15.2381 20.325C15.0794 20.325 15 20.25 15 20.1V17.85C15 17.7 15.0794 17.625 15.2381 17.625C15.3968 17.625 15.4762 17.7 15.4762 17.85V20.1C15.4762 20.25 15.3968 20.325 15.2381 20.325Z" fill="white"/>
<path d="M7.69903 26.55C7.5403 26.55 7.46094 26.475 7.46094 26.325V24.075C7.46094 23.925 7.5403 23.85 7.69903 23.85C7.85776 23.85 7.93713 24 7.93713 24.15V26.4C7.93713 26.475 7.85776 26.55 7.69903 26.55Z" fill="white"/>
<path d="M15.2381 26.55C15.0794 26.55 15 26.475 15 26.325V24.075C15 23.925 15.0794 23.85 15.2381 23.85C15.3968 23.85 15.4762 23.925 15.4762 24.075V26.325C15.4762 26.475 15.3968 26.55 15.2381 26.55Z" fill="white"/>
<path d="M18.492 17.25C18.3333 17.25 18.2539 17.175 18.2539 17.025V14.775C18.2539 14.625 18.3333 14.55 18.492 14.55C18.6507 14.55 18.7301 14.625 18.7301 14.775V17.025C18.7301 17.175 18.6507 17.25 18.492 17.25Z" fill="white"/>
<path d="M11.0311 23.475C10.8723 23.475 10.793 23.4 10.793 23.25V21C10.793 20.85 10.8723 20.775 11.0311 20.775C11.1898 20.775 11.2692 20.85 11.2692 21V23.25C11.2692 23.325 11.1104 23.475 11.0311 23.475Z" fill="white"/>
<path d="M18.492 23.475C18.3333 23.475 18.2539 23.4 18.2539 23.25V21C18.2539 20.85 18.3333 20.775 18.492 20.775C18.6507 20.775 18.7301 20.85 18.7301 21V23.25C18.7301 23.325 18.6507 23.475 18.492 23.475Z" fill="white"/>
<path d="M15.7147 11.925C15.5559 11.925 15.4766 11.85 15.4766 11.7C15.4766 11.55 15.5559 11.475 15.7147 11.475C15.8734 11.475 15.9528 11.55 15.9528 11.7C15.9528 11.85 15.8734 11.925 15.7147 11.925Z" fill="white"/>
<path d="M24.126 12.825H7.3006C7.14187 12.825 7.0625 12.75 7.0625 12.6V10.8C7.0625 10.65 7.14187 10.575 7.3006 10.575H24.2054C24.3641 10.575 24.4435 10.65 24.4435 10.8V12.6C24.3641 12.75 24.2847 12.825 24.126 12.825ZM7.53869 12.375H23.9673V11.025H7.53869V12.375Z" fill="white"/>
<path d="M14.285 12.375C14.1262 12.375 14.0469 12.3 14.0469 12.15V11.25C14.0469 11.1 14.1262 11.025 14.285 11.025C14.4437 11.025 14.5231 11.1 14.5231 11.25V12.15C14.5231 12.3 14.4437 12.375 14.285 12.375Z" fill="white"/>
<path d="M17.1443 12.375C16.9856 12.375 16.9062 12.3 16.9062 12.15V11.25C16.9062 11.1 16.9856 11.025 17.1443 11.025C17.3031 11.025 17.3824 11.1 17.3824 11.25V12.15C17.3824 12.3 17.2237 12.375 17.1443 12.375Z" fill="white"/>
<path d="M22.3002 12.375C21.9034 12.375 21.5859 12.075 21.5859 11.7C21.5859 11.325 21.9034 11.025 22.3002 11.025C22.697 11.025 23.0145 11.325 23.0145 11.7C23.0145 12.075 22.697 12.375 22.3002 12.375ZM22.3002 11.475C22.1415 11.475 22.0621 11.55 22.0621 11.7C22.0621 11.85 22.1415 11.925 22.3002 11.925C22.459 11.925 22.5383 11.85 22.5383 11.7C22.5383 11.55 22.3796 11.475 22.3002 11.475Z" fill="white"/>
<path d="M9.12835 12.375C8.73152 12.375 8.41406 12.075 8.41406 11.7C8.41406 11.325 8.73152 11.025 9.12835 11.025C9.52517 11.025 9.84263 11.325 9.84263 11.7C9.84263 12.075 9.52517 12.375 9.12835 12.375ZM9.12835 11.475C8.96962 11.475 8.89025 11.55 8.89025 11.7C8.89025 11.85 8.96962 11.925 9.12835 11.925C9.28708 11.925 9.36644 11.85 9.36644 11.7C9.36644 11.55 9.28708 11.475 9.12835 11.475Z" fill="white"/>
<path d="M22.9352 7.125C22.0622 7.125 21.2685 6.825 20.6336 6.225C19.4431 5.1 18.4114 0.45 18.332 0.3C18.332 0.225 18.332 0.15 18.4114 0.075C18.4114 0 18.5701 0 18.5701 0C18.8082 0.075 23.6495 1.05 24.84 2.175C25.6336 2.925 25.9511 4.05 25.713 5.025C25.713 5.175 25.5542 5.25 25.3955 5.175C25.2368 5.175 25.1574 5.025 25.2368 4.875C25.4749 4.05 25.1574 3.075 24.4431 2.4C23.4908 1.5 19.9193 0.675 18.7289 0.45C18.967 1.575 19.84 4.95 20.7923 5.85C21.5066 6.525 22.459 6.75 23.4114 6.6C23.5701 6.6 23.6495 6.675 23.7289 6.75C23.7289 6.9 23.6495 6.975 23.5701 7.05C23.4114 7.125 23.1733 7.125 22.9352 7.125Z" fill="white"/>
<path d="M26.1878 7.04998C26.1084 7.04998 26.0291 7.04998 26.0291 6.97498L23.7275 4.79998C23.6481 4.72498 23.6481 4.57498 23.7275 4.49998C23.8069 4.42498 23.9656 4.42498 24.045 4.49998L26.3465 6.67498C26.4259 6.74998 26.4259 6.89998 26.3465 6.97498C26.2672 6.97498 26.2672 7.04998 26.1878 7.04998Z" fill="white"/>
<path d="M25.5523 7.65001C25.473 7.65001 25.3936 7.65001 25.3936 7.57501L23.0126 5.40001C22.9333 5.32501 22.9333 5.17501 23.0126 5.10001C23.092 5.02501 23.2507 5.02501 23.3301 5.10001L25.6317 7.27501C25.7111 7.35001 25.7111 7.50001 25.6317 7.57501C25.6317 7.65001 25.5523 7.65001 25.5523 7.65001Z" fill="white"/>
<path d="M25.1597 7.95002C25.0803 7.95002 25.0009 7.95002 25.0009 7.87502C24.9216 7.80002 24.9216 7.65002 25.0009 7.57502L26.3501 6.30002C26.4295 6.22502 26.5882 6.22502 26.6676 6.30002C26.747 6.37502 26.747 6.52502 26.6676 6.60002L25.3184 7.87502C25.3184 7.95002 25.239 7.95002 25.1597 7.95002Z" fill="white"/>
<path d="M29.5232 9.52496C29.4438 9.52496 29.3645 9.52496 29.3645 9.44996L26.3486 6.59996C26.2692 6.52496 26.2692 6.37496 26.3486 6.29996C26.428 6.22496 26.5867 6.22496 26.666 6.29996L29.6819 9.14996C29.7613 9.22496 29.7613 9.37496 29.6819 9.44996C29.6026 9.52496 29.5232 9.52496 29.5232 9.52496Z" fill="white"/>
<path d="M28.1755 10.8C28.0962 10.8 28.0168 10.8 28.0168 10.725L25.0009 7.87499C24.9216 7.79999 24.9216 7.64999 25.0009 7.57499C25.0803 7.49999 25.239 7.49999 25.3184 7.57499L28.3343 10.425C28.4136 10.5 28.4136 10.65 28.3343 10.725C28.3343 10.725 28.2549 10.8 28.1755 10.8Z" fill="white"/>
<path d="M28.8063 11.025C28.4888 11.025 28.1714 10.875 28.0126 10.725C27.9333 10.65 27.9333 10.5 28.0126 10.425C28.092 10.35 28.2507 10.35 28.3301 10.425C28.5682 10.65 29.0444 10.65 29.3619 10.425C29.6 10.2 29.6 9.75 29.3619 9.45C29.2825 9.375 29.2825 9.225 29.3619 9.15C29.4412 9.075 29.6 9.075 29.6793 9.15C30.1555 9.6 30.1555 10.275 29.6793 10.725C29.4412 10.95 29.1238 11.025 28.8063 11.025Z" fill="white"/>
<path d="M23.1742 5.47499C23.0948 5.47499 23.0154 5.47499 23.0154 5.39999C22.8567 5.24999 22.7773 5.09999 22.7773 4.94999C22.7773 4.79999 22.8567 4.57499 23.0154 4.49999C23.2535 4.27499 23.7297 4.27499 24.0472 4.49999C24.1265 4.57499 24.1265 4.72499 24.0472 4.79999C23.9678 4.87499 23.8091 4.87499 23.7297 4.79999C23.6504 4.72499 23.4916 4.72499 23.4123 4.79999C23.3329 4.87499 23.3329 4.87499 23.3329 4.94999C23.3329 5.02499 23.3329 5.09999 23.4123 5.09999C23.4916 5.17499 23.4916 5.32499 23.4123 5.39999C23.3329 5.39999 23.2535 5.47499 23.1742 5.47499Z" fill="white"/>
</g>
<defs>
<clipPath id="clip0">
<rect width="30" height="27" fill="white"/>
</clipPath>
</defs>
</svg>
