<svg width="19" height="15" viewBox="0 0 19 15" fill="none" xmlns="http://www.w3.org/2000/svg">
<path d="M18.0091 0.0435426L17.0952 0.401182C16.2607 0.719083 15.5056 1.19594 14.8897 1.83174L12.6048 4.09679L1.85575 1.97082C1.53785 1.91121 1.20008 2.01056 0.961652 2.24898L0.425193 2.78544C0.345718 2.86492 0.365587 3.02387 0.464931 3.08348L9.24696 7.5341L5.0745 12.1635L0.882177 11.0509C0.743095 11.0111 0.584144 11.0509 0.4848 11.1502L0.0476852 11.5873C-0.0317901 11.6668 -0.0119213 11.8258 0.107292 11.9052L3.88237 14.1306L3.76316 14.5875C3.68368 14.9253 3.98172 15.2233 4.31949 15.1439L4.77647 15.0247L7.00178 18.7997C7.06139 18.9189 7.22034 18.9388 7.31968 18.8395L7.7568 18.4024C7.85614 18.303 7.89588 18.1441 7.85614 18.005L6.76335 13.7928L11.3928 9.62033L15.8434 18.4024C15.903 18.5216 16.0421 18.5414 16.1414 18.4421L16.6779 17.9056C16.9163 17.6672 17.0157 17.3294 16.9561 17.0115L14.7904 6.28236L17.0753 3.99744C17.6912 3.38151 18.1879 2.62649 18.5058 1.792L18.8635 0.878034C19.0423 0.361444 18.5257 -0.155146 18.0091 0.0435426Z"/>
</svg>
