<svg width="16" height="12" viewBox="0 0 16 12" fill="none" xmlns="http://www.w3.org/2000/svg">
<path d="M7.83753 9.25043C9.39576 9.25043 10.659 7.98724 10.659 6.42901C10.659 4.87078 9.39576 3.60759 7.83753 3.60759C6.27931 3.60759 5.01611 4.87078 5.01611 6.42901C5.01611 7.98724 6.27931 9.25043 7.83753 9.25043Z" fill="#786F79"/>
<path d="M14.7341 1.88095H11.9346C11.7253 1.88095 11.5293 1.7761 11.413 1.60194L10.5314 0.279355C10.415 0.104497 10.2191 0 10.0096 0H5.66479C5.45544 0 5.25951 0.104671 5.14317 0.279355L4.26156 1.60194C4.14522 1.7761 3.94929 1.88095 3.73978 1.88095H0.940473C0.420949 1.88095 0 2.30224 0 2.82142V10.6587C0 11.1781 0.420949 11.599 0.940473 11.599H14.7341C15.2536 11.599 15.6746 11.1781 15.6746 10.6587V2.82142C15.6746 2.30224 15.2536 1.88095 14.7341 1.88095ZM7.83728 10.1909C5.76284 10.1909 4.07539 8.50362 4.07539 6.42901C4.07539 4.35526 5.76284 2.66694 7.83728 2.66694C9.91172 2.66694 11.5992 4.35509 11.5992 6.42901C11.5992 8.50345 9.91172 10.1909 7.83728 10.1909ZM12.5396 3.29775C12.5396 3.46913 12.4008 3.60759 12.2293 3.60759H12.223C12.0516 3.60759 11.9125 3.46913 11.9125 3.29775V3.29113C11.9125 3.11976 12.0515 2.98078 12.223 2.98078H12.2293C12.4007 2.98078 12.5396 3.11976 12.5396 3.29113V3.29775Z" fill="#786F79"/>
<path d="M3.13482 0.626984H1.88086V1.25414H3.13482V0.626984Z" fill="#786F79"/>
</svg>
