<svg width="12" height="15" viewBox="0 0 12 15" fill="none" xmlns="http://www.w3.org/2000/svg">
<path d="M6.89936 13.2999V11.3846C9.52414 10.8518 11.4989 8.53185 11.4989 5.74953C11.4989 2.57357 8.92447 2.50146e-10 5.74947 2.50146e-10C2.57354 -2.92978e-05 0 2.57357 0 5.7495C0 8.53182 1.97475 10.8518 4.59865 11.3846V13.2998H2.87381L0.574036 15H4.59865H6.8993H10.9239L8.62414 13.2999H6.89936ZM5.74947 8.77997C4.16193 8.77997 2.87384 7.49271 2.87384 5.90516C2.87384 4.31765 4.16196 3.03041 5.74947 3.03041C7.33699 3.03041 8.62416 4.31765 8.62416 5.90516C8.62416 7.49268 7.33696 8.77997 5.74947 8.77997Z" fill="white"/>
</svg>
