<svg width="21" height="20" viewBox="0 0 21 20" fill="none" xmlns="http://www.w3.org/2000/svg">
<path d="M19.6875 8.75L15.75 11.25C15.75 10.4912 15.3878 9.82 14.8273 9.36124C16.1615 8.59562 17.0625 7.21624 17.0625 5.625C17.0625 3.20873 15.0058 1.25 12.4688 1.25C9.9317 1.25 7.875 3.20876 7.875 5.625C7.875 6.85062 8.40721 7.95562 9.26035 8.75H6.85321C7.4819 8.08562 7.875 7.215 7.875 6.25C7.875 4.17876 6.1123 2.5 3.9375 2.5C1.7627 2.5 0 4.17876 0 6.25C0 7.38 0.536152 8.38124 1.3663 9.06876C0.555848 9.49438 0 10.3062 0 11.25V16.25C0 17.6306 1.17535 18.75 2.625 18.75H13.125C14.5747 18.75 15.75 17.6306 15.75 16.25L19.6875 18.75C20.4127 18.75 21 18.1906 21 17.5V10C21 9.30938 20.4127 8.75 19.6875 8.75ZM3.9375 8.75C2.48785 8.75 1.3125 7.63062 1.3125 6.25C1.3125 4.86938 2.48785 3.75 3.9375 3.75C5.38715 3.75 6.5625 4.86938 6.5625 6.25C6.5625 7.63062 5.38715 8.75 3.9375 8.75ZM12.4688 8.75686C10.6523 8.75686 9.18029 7.35435 9.18029 5.625C9.18029 3.895 10.6529 2.49314 12.4688 2.49314C14.2846 2.49314 15.7572 3.895 15.7572 5.625C15.7572 7.355 14.2852 8.75686 12.4688 8.75686Z" fill="white"/>
</svg>
