<svg width="725" height="292" viewBox="0 0 725 292" fill="none" xmlns="http://www.w3.org/2000/svg">
<path fill-rule="evenodd" clip-rule="evenodd" d="M687.113 289.807C602.046 89.3507 395.606 -22.1275 190.49 4.6317C182.255 4.22614 174.247 8.39261 169.649 16.1664C163.203 27.4006 166.857 41.3755 177.715 48.5272C181.261 50.4268 184.92 51.6702 188.563 51.8398C153.263 57.0549 118.029 66.8255 83.6186 81.4665L60.7214 91.8782C54.728 93.1149 49.0077 97.1643 46.0513 102.693C39.6082 113.91 43.2561 127.861 54.1024 134.999C59.2273 137.742 64.7854 138.76 70.0619 138.035C39.0958 154.714 11.3519 175.312 -13.218 198.865C-16.0798 200.893 -18.2498 203.293 -20.2586 206.225C-26.7017 217.47 -23.0419 231.462 -12.1803 238.626C-2.17174 244.887 10.8874 242.092 18.1363 233.507C46.7823 205.661 80.9161 182.542 119.96 166.067C205.155 129.801 296.694 131.689 376.011 163.996C455.329 196.304 522.955 258.871 558.732 344.447C595.039 429.861 593.278 521.582 561.141 601.016C529.004 680.449 466.653 748.128 381.297 783.862C350.422 796.701 319.319 804.962 287.827 808.115C278.899 807.334 270.361 811.664 265.766 819.445C259.323 830.69 262.982 844.682 273.844 851.846C275.627 852.803 277.367 853.618 279.115 854.197C215.579 859 152.496 847.599 95.5111 821.997C85.0987 818.203 73.0635 822.428 67.3595 832.264C60.9163 843.481 64.5643 857.432 75.4106 864.57C77.4834 865.679 79.3955 866.258 81.3077 866.837C184.548 911.419 305.559 915.294 416.927 868.233C634.523 776.25 736.245 525.376 643.719 307.873C626.592 267.642 604.035 231.365 577.265 199.55C604.239 231.541 626.948 268.067 644.144 308.626C690.476 417.565 688.174 534.278 647.156 636.036C606.139 737.795 526.614 823.376 418.178 868.991C258.973 936.367 81.5511 899.629 -38.0874 789.696C-39.101 788.263 -40.6453 786.991 -42.0286 786.25C-42.1091 785.984 -42.282 785.892 -42.4549 785.799C-42.6278 785.706 -42.8007 785.614 -42.8811 785.348L-43.5728 784.978C-54.8005 778.518 -69.4513 781.796 -75.8977 793.031C-80.8652 801.497 -80.0906 811.703 -74.4918 818.708L-75.0226 818.869C-74.5963 819.32 -74.0375 819.73 -73.4786 820.141L-73.4783 820.141C-72.9193 820.552 -72.3603 820.963 -71.934 821.414L-71.2423 821.784C61.1857 945.244 259.018 986.24 436.154 911.111C677.003 809.137 789.142 530.951 687.113 289.807Z" fill="white"/>
</svg>
