<svg width="19" height="19" viewBox="0 0 19 19" fill="none" xmlns="http://www.w3.org/2000/svg">
<path d="M15.7845 0H2.70902C1.21539 0 0 1.21539 0 2.70902V15.7845C0 17.2782 1.21539 18.4935 2.70902 18.4935H15.7845C17.2782 18.4935 18.4935 17.2782 18.4935 15.7845V2.70902C18.4935 1.21539 17.2782 0 15.7845 0ZM9.2829 14.0869C6.59406 14.0869 4.40667 11.8995 4.40667 9.21065C4.40667 6.52181 6.59406 4.33443 9.2829 4.33443C11.9717 4.33443 14.1591 6.52181 14.1591 9.21065C14.1591 11.8995 11.9717 14.0869 9.2829 14.0869ZM14.7009 5.41803C13.8047 5.41803 13.0755 4.68886 13.0755 3.79262C13.0755 2.89639 13.8047 2.16721 14.7009 2.16721C15.5972 2.16721 16.3263 2.89639 16.3263 3.79262C16.3263 4.68886 15.5972 5.41803 14.7009 5.41803Z"/>
<path d="M14.701 3.25064C14.402 3.25064 14.1592 3.49346 14.1592 3.79244C14.1592 4.09142 14.402 4.33425 14.701 4.33425C15 4.33425 15.2428 4.09142 15.2428 3.79244C15.2428 3.49346 15 3.25064 14.701 3.25064Z"/>
<path d="M9.28286 5.41824C7.19184 5.41824 5.49023 7.11984 5.49023 9.21086C5.49023 11.3019 7.19184 13.0035 9.28286 13.0035C11.3739 13.0035 13.0755 11.3019 13.0755 9.21086C13.0755 7.11984 11.3739 5.41824 9.28286 5.41824Z"/>
</svg>
