<svg width="15" height="15" viewBox="0 0 15 15" fill="none" xmlns="http://www.w3.org/2000/svg">
<path d="M14.0508 12.5609L7.3905 5.91636C8.31948 4.2631 7.98883 2.09024 6.3828 0.83061C4.96572 -0.287311 2.90308 -0.271566 1.50174 0.846355C-0.371959 2.34216 -0.497922 5.0976 1.15534 6.75087C2.44646 8.04199 4.39889 8.24668 5.91044 7.39643L9.05951 10.5455L7.79988 11.8051C7.65818 11.9468 7.65818 12.1673 7.79988 12.309L8.49268 12.986C8.63439 13.1277 8.85482 13.1277 8.99653 12.986L10.2562 11.7264L10.9332 12.4035L9.67358 13.6631C9.53187 13.8048 9.53187 14.0252 9.67358 14.1669L10.3506 14.844C10.4923 14.9857 10.7128 14.9857 10.8545 14.844L12.1141 13.5844L12.5707 14.041C12.7124 14.1827 12.9329 14.1827 13.0746 14.041L14.0508 13.0648C14.1925 12.923 14.1925 12.7026 14.0508 12.5609ZM2.63541 5.2708C1.91112 4.54652 1.91112 3.36561 2.63541 2.64133C3.35969 1.91704 4.54059 1.91704 5.26488 2.64133C5.98917 3.36561 5.98917 4.54652 5.26488 5.2708C4.54059 5.99509 3.35969 5.99509 2.63541 5.2708Z" fill="white"/>
</svg>
