<svg width="20" height="20" viewBox="0 0 20 20" fill="none" xmlns="http://www.w3.org/2000/svg">
<path d="M6.07289 10.5752H13.9281C14.0236 10.5752 14.1151 10.5373 14.1826 10.4698C14.2502 10.4022 14.2881 10.3107 14.2881 10.2152V2.36C14.2881 2.26452 14.2502 2.17295 14.1826 2.10544C14.1151 2.03793 14.0236 2 13.9281 2H6.07289C5.97741 2 5.88585 2.03793 5.81833 2.10544C5.75082 2.17295 5.71289 2.26452 5.71289 2.36V10.2152C5.71289 10.3107 5.75082 10.4022 5.81833 10.4698C5.88585 10.5373 5.97741 10.5752 6.07289 10.5752ZM7.23929 5.3912C7.2637 5.31602 7.31218 5.25095 7.37724 5.20606C7.44231 5.16117 7.52034 5.13894 7.59929 5.1428H9.18329L9.64049 3.6344C9.66416 3.56238 9.70997 3.49966 9.77138 3.4552C9.8328 3.41075 9.90668 3.38681 9.98249 3.38681C10.0583 3.38681 10.1322 3.41075 10.1936 3.4552C10.255 3.49966 10.3008 3.56238 10.3245 3.6344L10.8141 5.1428H12.3981C12.4743 5.14253 12.5486 5.16643 12.6103 5.21107C12.6721 5.25572 12.718 5.31879 12.7417 5.39123C12.7653 5.46366 12.7653 5.54172 12.7417 5.61417C12.7181 5.68662 12.6722 5.74972 12.6105 5.7944L11.3289 6.7268L11.8185 8.2352C11.8423 8.30761 11.8426 8.38572 11.8192 8.45827C11.7958 8.53083 11.7499 8.59408 11.6883 8.63892C11.6266 8.68376 11.5523 8.70787 11.4761 8.70777C11.3999 8.70768 11.3256 8.68339 11.2641 8.6384L10.0005 7.7024L8.71889 8.6348C8.65735 8.67979 8.58311 8.70408 8.50688 8.70417C8.43064 8.70427 8.35635 8.68016 8.29469 8.63532C8.23304 8.59048 8.18721 8.52723 8.16381 8.45467C8.14042 8.38212 8.14065 8.30401 8.16449 8.2316L8.65409 6.7232L7.37249 5.7944C7.31041 5.74999 7.26406 5.687 7.24011 5.61453C7.21617 5.54206 7.21588 5.46385 7.23929 5.3912Z"/>
<path d="M18.639 11.4248H10.7838C10.6884 11.4248 10.5968 11.4627 10.5293 11.5302C10.4618 11.5978 10.4238 11.6893 10.4238 11.7848V19.64C10.4238 19.7355 10.4618 19.8271 10.5293 19.8946C10.5968 19.9621 10.6884 20 10.7838 20H18.639C18.7345 20 18.8261 19.9621 18.8936 19.8946C18.9611 19.8271 18.999 19.7355 18.999 19.64V11.7848C18.999 11.6893 18.9611 11.5978 18.8936 11.5302C18.8261 11.4627 18.7345 11.4248 18.639 11.4248ZM17.379 18.0308C17.3473 18.0857 17.3016 18.1313 17.2466 18.1629C17.1916 18.1945 17.1293 18.2111 17.0658 18.2108H12.3678C12.3045 18.2111 12.2423 18.1946 12.1873 18.1631C12.1324 18.1316 12.0868 18.0862 12.055 18.0314C12.0232 17.9767 12.0065 17.9145 12.0064 17.8512C12.0063 17.7878 12.023 17.7256 12.0546 17.6708L14.4054 13.6028C14.4371 13.5483 14.4825 13.503 14.5371 13.4715C14.5918 13.44 14.6538 13.4234 14.7168 13.4234C14.7799 13.4234 14.8419 13.44 14.8965 13.4715C14.9512 13.503 14.9966 13.5483 15.0282 13.6028L17.379 17.6708C17.4106 17.7255 17.4273 17.7876 17.4273 17.8508C17.4273 17.914 17.4106 17.9761 17.379 18.0308Z"/>
<path d="M9.2152 11.4248H1.36C1.26452 11.4248 1.17295 11.4627 1.10544 11.5302C1.03793 11.5978 1 11.6893 1 11.7848V19.64C1 19.7355 1.03793 19.8271 1.10544 19.8946C1.17295 19.9621 1.26452 20 1.36 20H9.2152C9.31068 20 9.40225 19.9621 9.46976 19.8946C9.53727 19.8271 9.5752 19.7355 9.5752 19.64V11.7848C9.5752 11.6893 9.53727 11.5978 9.46976 11.5302C9.40225 11.4627 9.31068 11.4248 9.2152 11.4248ZM5.2876 18.4304C4.74988 18.4311 4.22403 18.2723 3.77658 17.9741C3.32913 17.6759 2.9802 17.2516 2.77393 16.755C2.56766 16.2584 2.51332 15.7118 2.61779 15.1844C2.72226 14.6569 2.98084 14.1722 3.36081 13.7918C3.74079 13.4113 4.22508 13.1521 4.75242 13.0469C5.27976 12.9417 5.82644 12.9953 6.3233 13.201C6.82016 13.4066 7.24487 13.7549 7.54368 14.202C7.8425 14.649 8.002 15.1747 8.002 15.7124C8.002 16.4326 7.71614 17.1234 7.20719 17.633C6.69824 18.1427 6.00783 18.4295 5.2876 18.4304Z"/>
</svg>
