<svg width="20" height="20" viewBox="0 0 20 20" fill="none" xmlns="http://www.w3.org/2000/svg">
<path d="M9.3324 15.037C10.179 15.037 10.8562 15.7143 10.8562 16.4762C10.8562 17.3228 10.179 18 9.3324 18C8.48584 18 7.80859 17.3228 7.80859 16.4762C7.80859 15.7143 8.48584 15.037 9.3324 15.037Z"/>
<path d="M16.6976 15.037C17.4595 15.037 18.1368 15.7143 18.1368 16.4762C18.1368 17.3228 17.4595 18 16.6976 18C15.8511 18 15.1738 17.3228 15.1738 16.4762C15.1738 15.7143 15.8511 15.037 16.6976 15.037Z"/>
<path d="M0.698413 3.43915C-0.232804 3.43915 -0.232804 2 0.698413 2H4L5.18518 5.04762H20L17.9683 12.1587H7.89418L8.2328 13.0053H17.6296C18.5608 13.0053 18.5608 14.4444 17.6296 14.4444H7.30159L3.06878 3.43915H0.698413Z"/>
</svg>
