<svg width="19" height="20" viewBox="0 0 19 20" fill="none" xmlns="http://www.w3.org/2000/svg">
<path d="M0 8.125C0 9.28832 0.758441 10.2576 1.78125 10.5371V18.75H0.59375C0.266705 18.75 0 19.0295 0 19.375C0 19.7205 0.266742 20 0.59375 20H18.4062C18.7356 20 19 19.7205 19 19.375C19 19.0295 18.7356 18.75 18.4062 18.75H17.2188V10.5371C18.2416 10.2576 19 9.28832 19 8.125V7.5H0V8.125ZM11.875 10.625C13.1877 10.625 14.25 9.50562 14.25 8.125C14.25 9.28832 15.0084 10.2576 16.0312 10.5371V18.75H7.125V10.625C8.43774 10.625 9.5 9.50562 9.5 8.125C9.5 9.50562 10.5646 10.625 11.875 10.625ZM6.53125 10.5371V18.75H2.96875V10.5371C3.9916 10.2576 4.75 9.28832 4.75 8.125C4.75 9.28832 5.50844 10.2576 6.53125 10.5371ZM16.625 1.875H2.375L0 6.875H19L16.625 1.875ZM5.01674 3.26418L3.82924 5.76418C3.77588 5.87406 3.67153 5.93754 3.5625 5.93754C3.51841 5.93754 3.47321 5.92777 3.43028 5.90457C3.28414 5.82766 3.22384 5.63969 3.29806 5.48586L4.48556 2.98586C4.55978 2.83203 4.7372 2.7698 4.88333 2.84547C5.03066 2.92238 5.08862 3.11035 5.01674 3.26418ZM7.39174 3.26418L6.20424 5.76418C6.15088 5.87406 6.04653 5.93754 5.9375 5.93754C5.89341 5.93754 5.84821 5.92777 5.80528 5.90457C5.65914 5.82766 5.59884 5.63969 5.67306 5.48586L6.86056 2.98586C6.93478 2.83203 7.11338 2.7698 7.25833 2.84547C7.40566 2.92238 7.46362 3.11035 7.39174 3.26418ZM9.79688 5.625C9.79688 5.79836 9.66469 5.9375 9.5 5.9375C9.3365 5.9375 9.20312 5.79832 9.20312 5.625V3.125C9.20312 2.95164 9.3365 2.8125 9.5 2.8125C9.66469 2.8125 9.79688 2.95168 9.79688 3.125V5.625ZM13.2063 5.89844C13.1599 5.92531 13.1112 5.9375 13.0625 5.9375C12.9581 5.9375 12.8561 5.87891 12.8027 5.77516L11.5039 3.27516C11.425 3.12379 11.4784 2.93336 11.6222 2.85156C11.7637 2.76855 11.9469 2.82227 12.0258 2.97484L13.3246 5.47484C13.4011 5.62621 13.3501 5.81664 13.2063 5.89844ZM15.5697 5.90453C15.528 5.92773 15.4839 5.9375 15.4375 5.9375C15.3285 5.9375 15.2241 5.87402 15.1731 5.76414L13.9856 3.26414C13.9114 3.11031 13.9717 2.92234 14.1178 2.84543C14.2616 2.76852 14.4425 2.83078 14.5167 2.98582L15.7042 5.48582C15.7761 5.63965 15.7181 5.82766 15.5697 5.90453ZM5.04688 15.0952V13.6548C4.87291 13.545 4.75 13.3545 4.75 13.125C4.75 12.7796 5.01674 12.5 5.34375 12.5C5.6731 12.5 5.9375 12.7796 5.9375 13.125C5.9375 13.3545 5.81574 13.545 5.64062 13.6548V15.0952C5.81574 15.2051 5.9375 15.3955 5.9375 15.625C5.9375 15.9705 5.6731 16.25 5.34375 16.25C5.01671 16.25 4.75 15.9705 4.75 15.625C4.75 15.3955 4.87294 15.2051 5.04688 15.0952ZM2.375 0.625C2.375 0.279531 2.64174 0 2.96875 0H16.0312C16.3606 0 16.625 0.279531 16.625 0.625C16.625 0.970469 16.3606 1.25 16.0312 1.25H2.96875C2.64174 1.25 2.375 0.970469 2.375 0.625ZM10.4069 13.9709L9.9871 13.529L11.6663 11.7614L12.0861 12.2034L10.4069 13.9709ZM10.4069 15.7385L9.9871 15.2966L13.3455 11.7614L13.7653 12.2034L10.4069 15.7385ZM13.3455 13.5291L13.7652 13.971L12.086 15.7386L11.6663 15.2966L13.3455 13.5291Z" fill="white"/>
</svg>
