<svg width="951" height="750" viewBox="0 0 951 750" fill="none" xmlns="http://www.w3.org/2000/svg">
<path opacity="0.16" fill-rule="evenodd" clip-rule="evenodd" d="M670 0H0V750H670V702.027C696.993 698.305 723.954 691.141 750.3 680.302C916.479 611.427 994.801 422.716 925.93 258.566C884.844 160.868 800.763 93.7268 704.646 69.9347C698.338 68.1995 691.782 70.483 688.07 76.2358C684.014 83.1292 686.185 91.7357 692.846 96.2315C685.302 94.4866 677.681 93.0326 670 91.8768V0ZM670 179.886C629.517 171.031 585.963 174.041 544.672 191.15C520.171 201.213 498.712 215.404 480.664 232.54C476.09 237.828 467.907 239.513 461.675 235.603C454.913 231.132 452.688 222.459 456.77 215.522C458.04 213.714 459.408 212.236 461.208 210.991C477.356 195.871 495.649 182.754 516.119 172.317C512.172 173.465 507.812 172.965 503.875 170.845C497.113 166.374 494.887 157.701 498.97 150.763C500.844 147.343 504.444 144.852 508.202 144.107L522.585 137.733C543.781 128.948 565.453 123.076 587.156 119.926C585.235 119.656 583.319 118.941 581.455 117.938C574.694 113.467 572.468 104.794 576.55 97.8562C579.461 93.0561 584.49 90.5037 589.64 90.7852C616.654 87.4561 643.678 87.916 670 91.8768V179.886ZM670 585.465V179.886C681.933 182.496 693.599 186.137 704.862 190.751C754.333 211.021 796.352 249.978 818.34 303.066C840.661 356.056 839.139 412.818 818.67 461.871C798.202 510.923 758.886 552.596 705.325 574.419C693.602 579.163 681.834 582.869 670 585.465ZM670 643.897V585.465C662.277 587.159 654.526 588.38 646.741 589.107C641.16 588.594 635.798 591.244 632.888 596.044C628.806 602.981 631.031 611.654 637.793 616.125C639.428 617.006 641.007 617.697 642.631 618.011C602.521 620.921 562.741 613.616 526.899 597.389C520.394 594.994 512.84 597.571 509.226 603.653C505.419 610.123 507.098 618.102 512.827 622.775C487.47 611.103 463.92 595.507 443.2 576.407C442.572 575.515 441.611 574.721 440.749 574.257C440.7 574.092 440.592 574.034 440.484 573.976C440.377 573.918 440.269 573.86 440.22 573.695L439.789 573.463C432.792 569.419 423.612 571.397 419.53 578.334C416.385 583.562 416.825 589.889 420.297 594.25L419.964 594.348C420.229 594.629 420.577 594.886 420.925 595.142L420.926 595.143C421.273 595.399 421.621 595.655 421.885 595.936L422.316 596.168C487.777 657.393 579.345 686.452 670 672.697V673.1C545.732 692.06 419.994 630.369 361.518 516.094C360.299 513.224 358.416 510.548 355.398 508.924C348.402 504.88 339.221 506.858 335.139 513.795C332.697 517.74 332.547 522.089 334.158 526.279L334.355 526.938C334.454 527.268 334.635 527.574 334.817 527.879C334.998 528.184 335.18 528.49 335.278 528.819C398.884 653.059 534.848 720.667 670 702.027V673.1C693.248 669.552 716.444 663.183 739.139 653.806C779.95 636.971 814.96 612.067 843.07 581.747C814.999 611.862 780.079 636.598 739.374 653.378C716.617 662.777 693.339 669.156 670 672.697V643.903C689.617 640.621 709.165 635.103 728.312 627.213C780.293 605.924 821.819 570.119 850.167 526.356C821.732 570.01 780.081 605.861 727.979 627.311C708.968 635.135 689.527 640.62 670 643.897ZM670 643.897V643.903C666.235 644.533 662.468 645.08 658.701 645.546C662.469 645.078 666.236 644.528 670 643.897Z" fill="#0D0812"/>
</svg>
