<svg width="19" height="13" viewBox="0 0 19 13" fill="none" xmlns="http://www.w3.org/2000/svg">
<path d="M18.5059 5.47716C18.5059 3.97498 17.2472 2.75732 15.6938 2.75732C15.4761 2.75732 15.2649 2.78357 15.0616 2.82878C14.7959 1.49004 13.58 0.478154 12.1186 0.478154C11.627 0.478154 11.1642 0.594605 10.7551 0.797291C10.2643 0.306566 9.57752 0 8.81601 0C8.05563 0 7.37004 0.305463 6.87962 0.794865C6.42567 0.459186 5.85978 0.257383 5.24419 0.257383C3.97583 0.257383 2.91518 1.10474 2.62654 2.24499C1.36229 2.68168 0.455996 3.84707 0.455996 5.21977C0.455996 5.79916 0.619927 6.34039 0.901277 6.8073C0.344277 7.36882 0 8.12928 0 8.96913C0 10.6947 1.44619 12.0935 3.23005 12.0935C3.73279 12.0935 4.20679 11.9792 4.6311 11.7812C5.08482 11.9801 5.58732 12.0935 6.11788 12.0935C6.38372 12.0935 6.64227 12.0646 6.8917 12.0121C7.17237 12.488 7.55723 13.0566 7.95508 13.3806C8.67966 13.9703 9.20862 17.4797 8.16712 19H11.5572C11.5572 19 8.94665 15.3609 12.1701 12.0066C12.8593 12.4318 13.6756 12.6821 14.554 12.6821C17.0096 12.6821 19 10.7567 19 8.38115C19 7.59422 18.7777 6.85891 18.3963 6.22416C18.4663 5.98641 18.5059 5.73652 18.5059 5.47716ZM8.30825 12.8345C8.1922 13.0158 7.85887 12.4274 7.55791 11.8014C7.74601 11.7223 7.92636 11.6292 8.09622 11.5211C8.27451 12.0729 8.42088 12.6587 8.30825 12.8345ZM9.84451 14.1324C9.48746 14.7562 9.35317 13.3541 9.30415 12.0052C9.55449 12.0608 9.81509 12.0901 10.0823 12.0926C10.148 12.8303 10.129 13.6353 9.84451 14.1324ZM10.7095 12.971C10.5363 13.2683 10.5073 12.7428 10.528 12.0699C10.6785 12.0531 10.8263 12.0273 10.9704 11.9927C10.9387 12.3365 10.8657 12.7031 10.7095 12.971Z"/>
</svg>
