<svg width="19" height="20" viewBox="0 0 19 20" fill="none" xmlns="http://www.w3.org/2000/svg">
<g clip-path="url(#clip0)">
<path d="M5.16705 10.0804C4.75087 10.5064 4.49023 11.0997 4.49023 11.7578C4.49023 13.0504 5.48885 14.1016 6.7168 14.1016H7.83008V15.6168L4.81639 18.8281H3.37695V20H13.3965V18.8281H11.957L9.70932 16.423C10.5307 16.3133 11.1699 15.5814 11.1699 14.6875C11.1699 13.7183 10.4209 12.9297 9.5 12.9297H8.94336V10.5855C9.33417 10.5855 12.4438 10.5859 12.2832 10.5859C14.824 10.5859 16.8639 8.31573 16.7304 5.60822C16.6086 3.16193 14.5147 1.17188 12.0626 1.17188H11.951C11.2188 0.418396 10.2558 0 9.2298 0H8.38672C7.46594 0 6.7168 0.788574 6.7168 1.75781C6.7168 2.72705 7.46594 3.51562 8.38672 3.51562H9.2298C10.2558 3.51562 11.2188 3.09723 11.951 2.34375H12.0626C13.932 2.34375 15.5274 3.83545 15.6181 5.6694C15.7084 7.47131 14.495 9.16061 12.6552 9.37469C13.7776 8.40698 14.5098 6.91635 14.5098 5.27344V4.6875H2.26367V5.27344C2.26367 7.38678 3.45798 9.23981 5.16705 10.0804ZM8.94336 14.1016H9.5C9.80717 14.1016 10.0566 14.3642 10.0566 14.6875C10.0566 15.0108 9.80717 15.2734 9.5 15.2734H8.94336V14.1016ZM6.7168 10.5855C6.82885 10.5855 7.94213 10.5855 7.83008 10.5855V12.9297H6.7168C6.10304 12.9297 5.60352 12.4039 5.60352 11.7578C5.60352 11.1118 6.10304 10.5855 6.7168 10.5855Z" fill="white"/>
</g>
<defs>
<clipPath id="clip0">
<rect width="19" height="20" fill="white"/>
</clipPath>
</defs>
</svg>
