<svg width="17" height="13" viewBox="0 0 17 13" fill="none" xmlns="http://www.w3.org/2000/svg">
<path fill-rule="evenodd" clip-rule="evenodd" d="M11.5852 1.70922C12.3131 1.76395 12.748 1.79195 12.8501 2.52606C12.7172 2.83475 12.6313 3.22447 13.0146 3.57848L16.6748 4.42589C16.9844 4.23328 17.0313 3.78927 16.9844 3.39014C16.7955 2.56539 16.6703 1.44714 16.1692 1.07687C14.2247 -0.359064 2.77551 -0.358851 0.830966 1.07687C0.329655 1.44692 0.204495 2.5654 0.015528 3.39014C-0.0313234 3.78927 0.0157511 4.23328 0.325416 4.42589L3.9854 3.57848C4.36869 3.22447 4.28279 2.83475 4.15005 2.52606C4.25201 1.79195 4.68683 1.76395 5.41504 1.70922H11.5851H11.5852ZM7.05283 3.67467V2.39202H4.80976V4.26406L1.37265 9.88018V13H15.6273V9.88018L12.1904 4.26406V2.39202H9.94715V3.67467H7.05283ZM5.60579 5.4488H6.98055V6.45419H5.60579V5.4488ZM10.0196 8.53252H11.3944V9.5377H10.0196V8.53252ZM10.0196 6.99055H11.3944V7.99594H10.0196V6.99055ZM7.81271 8.53252H9.18746V9.5377H7.81271V8.53252ZM7.81271 6.99055H9.18746V7.99594H7.81271V6.99055ZM5.60577 8.53252H6.98053V9.5377H5.60577V8.53252ZM5.60577 6.99055H6.98053V7.99594H5.60577V6.99055ZM10.0196 5.4488H11.3944V6.45419H10.0196V5.4488ZM7.81269 5.4488H9.18745V6.45419H7.81269V5.4488Z" fill="#85C441"/>
</svg>
