<svg width="18" height="18" viewBox="0 0 18 18" fill="none" xmlns="http://www.w3.org/2000/svg">
<path fill-rule="evenodd" clip-rule="evenodd" d="M4.58392 6.34608L6.21477 4.46298C6.45717 4.18355 6.47279 3.78552 6.25411 3.487L3.93193 0.321884C3.7335 0.0505551 3.40259 -0.0616792 3.07977 0.0331992C0.765118 0.711811 -0.704899 2.7355 0.345113 5.6102C2.26406 10.8655 7.13345 15.7356 12.3899 17.6551C15.2651 18.7046 17.2882 17.2351 17.9668 14.9204C18.0617 14.5976 17.9494 14.2667 17.6781 14.0683L14.513 11.746C14.2145 11.5274 13.8165 11.543 13.5371 11.7854L11.654 13.4163C8.9448 12.3037 5.69699 9.0559 4.5845 6.34666L4.58392 6.34608Z" fill="white"/>
</svg>
