<svg width="204" height="219" viewBox="0 0 204 219" fill="none" xmlns="http://www.w3.org/2000/svg">
<path d="M173.151 101.507C172.261 54.2375 133.237 16.6584 86.0133 17.544C75.2447 17.7023 65.0429 19.9089 55.5762 23.6794C54.8096 23.8604 54.1561 24.1763 53.4914 24.6161C51.2049 26.4086 50.7922 29.6175 52.4532 32.0134C54.0124 34.1506 56.9675 34.6652 59.1985 33.4919C67.5043 30.1167 76.5564 28.1816 86.0733 28.0359C106.866 27.6525 125.776 35.7144 139.586 49.0616C153.396 62.4089 162.229 81.0527 162.495 101.8C162.886 122.558 154.816 141.435 141.451 155.218C128.085 169 109.413 177.813 88.6314 178.073C81.1216 178.149 73.9486 177.256 67.1237 175.271C65.3295 174.361 63.1873 174.544 61.5765 175.773C59.29 177.565 58.8773 180.774 60.5383 183.17C61.1031 183.845 61.6789 184.396 62.4011 184.71L62.39 184.834C70.7943 187.335 79.5577 188.62 88.8266 188.452C136.411 187.724 174.041 148.776 173.151 101.507Z" fill="#85C441"/>
<path fill-rule="evenodd" clip-rule="evenodd" d="M154.796 7.7342C183.729 28.4361 202.863 62.1219 203.562 100.4C204.683 164.692 153.365 217.789 88.6768 218.985C53.8816 219.538 22.369 204.894 0.535156 181.181C3.56393 180.232 7.21072 179.003 11.3545 177.485C31.0459 197.155 58.4107 209.123 88.481 208.602C117.812 208.108 144.203 195.737 163.1 176.201C182.009 156.54 193.414 129.837 192.909 100.569C192.271 65.7933 175.095 35.405 149.008 16.457C148.409 16.1535 147.822 15.7262 147.381 15.0623C145.718 12.6653 146.131 9.45525 148.42 7.66219C150.426 6.21855 152.921 6.31723 154.796 7.7342Z" fill="#EC008C"/>
<path fill-rule="evenodd" clip-rule="evenodd" d="M85.3323 7.32418C138.564 6.36416 182.289 48.5338 183.322 101.33C184.344 154.249 141.961 197.796 88.7408 198.633C63.15 199.031 39.5664 189.381 22.0273 173.351C25.4171 171.969 29.0028 170.444 32.7433 168.772C47.9399 181.228 67.5076 188.503 88.6767 188.161C112.275 187.784 133.595 177.859 148.791 162.151C163.986 146.444 173.17 125.09 172.777 101.506C172.373 78.0461 162.367 56.8403 146.55 41.7172C130.734 26.5942 109.243 17.4414 85.5208 17.807C83.3848 17.8647 81.1134 18.0349 78.9663 18.2162L78.9774 18.0926C77.3499 18.0713 75.7888 17.3085 74.6561 15.961C72.9904 13.569 73.4028 10.3665 75.6939 8.57835C76.7773 7.6787 78.3137 7.31804 79.6704 7.56424L85.3323 7.32418Z" fill="#F68A22"/>
<path fill-rule="evenodd" clip-rule="evenodd" d="M113.755 1.41871C158.821 13.0192 192.552 53.2281 193.474 101.652C194.519 159.879 147.745 207.87 88.9028 208.793C58.6608 209.286 31.0706 197.252 11.2969 177.506C14.5496 176.316 18.1096 174.947 21.9182 173.396C39.4715 189.383 63.0021 199.009 88.688 198.61C115.155 198.255 138.944 187.249 156.053 169.694C173.162 152.139 183.445 128.27 182.923 101.946C182.102 57.9932 151.294 21.5169 110.241 11.2678C109.134 11.0445 108.194 10.3406 107.401 9.40188C105.735 7.02143 106.146 3.83552 108.436 2.05749C110.048 0.838574 112.07 0.647928 113.755 1.41871Z" fill="#842990"/>
</svg>
