<svg width="20" height="20" viewBox="0 0 20 20" fill="none" xmlns="http://www.w3.org/2000/svg">
<g clip-path="url(#clip0)">
<path d="M19.4803 17.0049L11.6379 9.1625L2.47543 0H1.75938L1.61317 0.371523C1.22727 1.35215 1.06239 2.35512 1.13641 3.27188C1.22078 4.31688 1.61778 5.2216 2.28453 5.88836L9.43727 13.0411L10.3807 12.0977L16.9934 19.4919C17.6512 20.1497 18.7834 20.1888 19.4803 19.4919C20.166 18.8062 20.166 17.6906 19.4803 17.0049Z" fill="white"/>
<path d="M6.12207 11.3845L0.520078 16.9865C-0.165547 17.6721 -0.165547 18.7878 0.520078 19.4734C1.17141 20.1247 2.29816 20.1822 3.00699 19.4734L8.60902 13.8714L6.12207 11.3845Z" fill="white"/>
<path d="M19.1504 3.33047L15.9726 6.5082L15.1436 5.67922L18.3213 2.50144L17.4923 1.67246L14.3146 4.85019L13.4856 4.02121L16.6634 0.843475L15.8345 0.0145302L11.6895 4.15945C11.1825 4.66652 10.8797 5.3398 10.8369 6.05535C10.8261 6.23664 10.785 6.41496 10.7168 6.58457L13.4093 9.27711C13.5789 9.20887 13.7573 9.16781 13.9386 9.15699C14.6541 9.1143 15.3274 8.81144 15.8345 8.30437L19.9794 4.15949L19.1504 3.33047Z" fill="white"/>
</g>
<defs>
<clipPath id="clip0">
<rect width="20" height="20" fill="white"/>
</clipPath>
</defs>
</svg>
