<svg width="19" height="17" viewBox="0 0 19 17" fill="none" xmlns="http://www.w3.org/2000/svg">
<path d="M2.2619 4.11059e-06V13.1191C5.1556 13.1034 7.31192 14.682 9.04762 16.1302V2.71429C7.12689 1.10437 4.96789 -0.00246137 2.2619 4.11059e-06ZM16.7381 4.11059e-06C14.0321 -0.00246137 11.8731 1.10437 9.95238 2.71429V16.1302C11.6881 14.682 13.8444 13.1035 16.7381 13.1191V4.11059e-06ZM0 1.80953V14.9286L7.91667 16.2857C6.4121 15.1513 4.51416 14.0116 2.2619 14.0238H1.80952C1.57266 14.0238 1.35717 13.8083 1.35714 13.5714V13.1191V2.00038L0 1.80953ZM19 1.80953L17.6429 2.00038V13.1191V13.5714C17.6428 13.8083 17.4273 14.0238 17.1905 14.0238H16.7381C14.4858 14.0116 12.5879 15.1513 11.0833 16.2857L19 14.9286V1.80953Z"/>
</svg>
