<svg width="21" height="20" viewBox="0 0 21 20" fill="none" xmlns="http://www.w3.org/2000/svg">
<g clip-path="url(#clip0)">
<path d="M1.91774 5.95332C3.95614 4.28621 5.56637 2.96821 9.93484 5.31909C12.0334 6.44821 13.7263 6.87443 15.1356 6.87421C17.6031 6.87421 19.2017 5.56687 20.5844 4.43532C21.0774 4.03221 21.1409 3.31643 20.726 2.83665C20.3112 2.35687 19.5752 2.29487 19.0822 2.69865C17.044 4.36643 15.434 5.68398 11.0642 3.33265C5.29174 0.227094 2.5881 2.43932 0.415538 4.21643C-0.0772625 4.61976 -0.140962 5.33554 0.273904 5.81532C0.688537 6.29487 1.42447 6.35687 1.91774 5.95332ZM19.0822 8.37287C17.044 10.0402 15.434 11.358 11.0642 9.00687C5.29174 5.90109 2.5881 8.11332 0.415538 9.89065C-0.0772625 10.2942 -0.140962 11.01 0.273904 11.4891C0.688537 11.9689 1.4247 12.0309 1.91774 11.6273C3.95614 9.95998 5.56637 8.64221 9.93484 10.9929C12.0334 12.122 13.7263 12.5484 15.1356 12.5484C17.6031 12.5484 19.2017 11.2409 20.5844 10.1095C21.0774 9.70598 21.1409 8.99021 20.726 8.51087C20.3114 8.03065 19.5755 7.96909 19.0822 8.37287ZM19.0822 14.0464C17.044 15.714 15.434 17.0315 11.0642 14.6807C5.29174 11.5749 2.5881 13.7871 0.415538 15.5644C-0.0772625 15.9678 -0.140962 16.6838 0.273904 17.1635C0.688537 17.6427 1.4247 17.7049 1.91774 17.3013C3.95614 15.6335 5.56614 14.3164 9.93484 16.6667C12.0334 17.7962 13.7263 18.2222 15.1356 18.2222C17.6031 18.2222 19.2017 16.9147 20.5844 15.7835C21.0774 15.3802 21.1409 14.664 20.726 14.1844C20.3112 13.7049 19.5755 13.6433 19.0822 14.0464Z" fill="white"/>
</g>
<defs>
<clipPath id="clip0">
<rect width="21" height="20" fill="white"/>
</clipPath>
</defs>
</svg>
