<svg width="19" height="19" viewBox="0 0 19 19" fill="none" xmlns="http://www.w3.org/2000/svg">
<g clip-path="url(#clip0)">
<path d="M18.343 11.4469C19.7107 5.30079 14.3264 -0.28262 8.00328 0.789205C4.5706 -1.34107 0 1.06621 0 5.15048C0 6.10033 0.262054 6.98958 0.717698 7.75607C-0.553225 13.9163 4.87515 19.4194 11.1928 18.2744C15.6587 20.6361 20.5937 15.9262 18.343 11.4469ZM12.3323 15.1534C10.6734 15.8357 7.94347 15.8396 6.29166 14.9748C3.93632 13.7188 3.51766 10.8913 5.54957 10.8913C7.08097 10.8913 6.59621 12.6769 8.14257 13.4048C8.85239 13.7329 10.3783 13.7668 11.2652 13.1687C12.1411 12.5824 12.0608 11.6601 11.5847 11.2194C10.3232 10.0547 6.71347 10.5175 5.06323 8.47849C4.34632 7.59396 4.21097 6.03344 5.09235 4.9018C6.62848 2.92499 11.1361 2.80458 13.0744 4.29742C14.8639 5.68246 14.3807 7.52077 12.9367 7.52077C11.1999 7.52077 12.1127 5.24806 9.30883 5.24806C7.27613 5.24806 6.47659 6.69369 7.90805 7.39722C9.84867 8.36123 14.7939 8.03937 14.7939 11.8065C14.7899 13.3741 13.8291 14.5427 12.3323 15.1534Z" fill="#F0F0F0"/>
</g>
<defs>
<clipPath id="clip0">
<rect width="18.8868" height="18.8868" fill="white"/>
</clipPath>
</defs>
</svg>
