<svg width="20" height="20" viewBox="0 0 20 20" fill="none" xmlns="http://www.w3.org/2000/svg">
<g clip-path="url(#clip0)">
<path d="M19.6506 6.14371L17.9968 4.48988L19.24 3.2471C19.35 3.1373 19.4118 2.98851 19.4118 2.83288C19.4118 2.67726 19.35 2.52847 19.2401 2.41862L17.5755 0.75409C17.3558 0.534363 16.9667 0.534363 16.747 0.75409L15.5042 1.99733L13.8502 0.343191C13.3925 -0.114427 12.6505 -0.114427 12.1929 0.343191C11.7352 0.800809 11.7352 1.5428 12.1929 2.00046L17.9933 7.80098C18.451 8.2586 19.193 8.2586 19.6506 7.80098C20.1082 7.34336 20.1082 6.60137 19.6506 6.14371Z"/>
<path d="M7.80682 17.9994L2.00638 12.1989C1.54868 11.7413 0.806769 11.7413 0.349073 12.1989C-0.108545 12.6566 -0.108545 13.3986 0.349073 13.8562L2.00318 15.5103L0.762355 16.7506C0.652472 16.8605 0.590675 17.0093 0.590675 17.1649C0.590675 17.3205 0.652472 17.4693 0.762355 17.5791L2.42689 19.2431C2.5413 19.3576 2.69123 19.4148 2.84115 19.4148C2.99107 19.4148 3.14099 19.3576 3.25541 19.2432L4.49572 18.0028L6.14955 19.6567C6.60717 20.1143 7.34916 20.1143 7.80682 19.6567C8.26452 19.199 8.26452 18.457 7.80682 17.9994Z"/>
<path d="M10.5358 6.97239L6.97852 10.5418L9.46446 13.0277L13.0217 9.45825L10.5358 6.97239Z"/>
<path d="M17.9935 9.45819L10.5357 2.0004C10.0781 1.54278 9.33605 1.54278 8.87843 2.0004C8.42073 2.4581 8.42073 3.20001 8.87843 3.65771L16.3362 11.1155C16.7938 11.5731 17.5358 11.5731 17.9935 11.1155C18.4512 10.6579 18.4512 9.91589 17.9935 9.45819Z"/>
<path d="M11.1204 16.3422L3.66261 8.88438C3.20499 8.42676 2.463 8.42676 2.00538 8.88438C1.54769 9.34208 1.54769 10.0841 2.00538 10.5417L9.46318 17.9995C9.9208 18.4571 10.6628 18.4571 11.1204 17.9995C11.5781 17.5419 11.5781 16.7999 11.1204 16.3422Z"/>
</g>
<defs>
<clipPath id="clip0">
<rect width="20" height="20"/>
</clipPath>
</defs>
</svg>
