<svg width="14" height="14" viewBox="0 0 14 14" fill="none" xmlns="http://www.w3.org/2000/svg">
<path d="M4.70724 5.2661L13.1921 8.47787L9.56801 10.1259L7.58412 13.7422L4.70724 5.2661ZM4.06546 7.57184C4.28416 7.72024 4.33883 8.02095 4.18652 8.23574C4.03812 8.45444 3.73742 8.50911 3.52262 8.36071C2.68689 7.78663 2.18702 6.83765 2.18702 5.82227C2.18702 5.03341 2.48772 4.24844 3.08914 3.64703C3.69055 3.04561 4.47942 2.74491 5.26438 2.74491C6.05325 2.74491 6.84212 3.04561 7.44353 3.64703C7.57241 3.7759 7.69738 3.92821 7.80282 4.08052C7.95122 4.29531 7.89655 4.59601 7.68176 4.74441C7.46306 4.89672 7.16235 4.84205 7.01395 4.62335C6.93975 4.514 6.85774 4.41637 6.76401 4.32655C6.35005 3.91259 5.80722 3.70561 5.26438 3.70561C4.72155 3.70561 4.18262 3.91259 3.76866 4.32655C3.3547 4.7366 3.14772 5.27944 3.14772 5.82227C3.14772 6.51742 3.49138 7.17741 4.06546 7.57184ZM4.167 9.7549C4.42084 9.82519 4.56924 10.0908 4.49895 10.3446C4.42865 10.5984 4.167 10.7468 3.90925 10.6765C3.49919 10.5633 3.10085 10.3954 2.72204 10.1767C2.35494 9.95797 2.01128 9.69632 1.70276 9.3878C0.718628 8.40367 0.222656 7.11492 0.222656 5.82227C0.222656 4.53353 0.718628 3.24478 1.70276 2.26065C2.68689 1.27652 3.97564 0.780548 5.26438 0.780548C6.55703 0.780548 7.84578 1.27652 8.82991 2.26065C9.13843 2.56917 9.40008 2.91284 9.61878 3.27993C9.83747 3.65875 10.0054 4.05708 10.1187 4.46714C10.189 4.72489 10.0405 4.98654 9.78671 5.05684C9.53286 5.12713 9.2673 4.97873 9.19701 4.72489C9.10328 4.38903 8.9705 4.0688 8.79086 3.76419C8.62293 3.47129 8.40814 3.19402 8.15039 2.93627C7.35371 2.13959 6.311 1.74125 5.26438 1.74125C4.22167 1.74125 3.17505 2.13959 2.37838 2.93627C1.5817 3.73295 1.18336 4.77956 1.18336 5.82227C1.18336 6.86889 1.5817 7.9116 2.37838 8.70828C2.63612 8.96603 2.9134 9.18082 3.2063 9.34875C3.51091 9.52839 3.83114 9.66117 4.167 9.7549Z" fill="#85C441"/>
</svg>
