<svg width="19" height="19" viewBox="0 0 19 19" fill="none" xmlns="http://www.w3.org/2000/svg">
<g clip-path="url(#clip0)">
<path d="M18.2218 10.9331C18.7853 6.19016 17.9511 3.19582 16.4465 1.84148L16.4473 1.84069C14.0187 -0.472151 5.81714 -0.814475 2.91172 1.94457C1.60696 3.29419 1.14738 5.27494 1.09702 7.72708C1.04665 10.18 0.986845 14.775 5.26864 16.0215H5.27257L5.26864 17.9252C5.26864 17.9252 5.23952 18.6964 5.73215 18.8514C6.29561 19.034 6.55058 18.6759 8.30311 16.5826C11.2337 16.8368 13.4844 16.2545 13.7401 16.1695C14.3319 15.9712 17.6804 15.5281 18.2218 10.9331ZM8.59192 15.2432C8.59192 15.2432 6.73708 17.5561 6.16025 18.1565C5.97138 18.3517 5.76441 18.3336 5.76756 17.9464C5.76756 17.6922 5.78173 14.786 5.78173 14.786C2.15153 13.7457 2.36558 9.83295 2.40493 7.7861C2.44428 5.73845 2.81886 4.06146 3.92374 2.93219C6.47267 0.542226 13.663 1.07657 15.495 2.79841C17.7347 4.78388 16.9375 10.3933 16.9422 10.5845C16.4819 14.4201 13.7685 14.6632 13.2696 14.8293C13.0563 14.9001 11.0771 15.4093 8.59192 15.2432Z" fill="#F0F0F0"/>
<path d="M9.61812 3.38153C9.31514 3.38153 9.31514 3.8537 9.61812 3.85764C11.9687 3.87573 13.9046 5.51416 13.9259 8.51952C13.9259 8.83666 14.3902 8.83273 14.3862 8.51559H14.3855C14.3603 5.27729 12.2465 3.39963 9.61812 3.38153Z" fill="#F0F0F0"/>
<path d="M12.71 8.02139C12.7029 8.33459 13.1664 8.34955 13.1704 8.03241C13.2089 6.24682 12.108 4.77601 10.0391 4.62098C9.73613 4.59895 9.70465 5.07505 10.0068 5.09709C11.8011 5.23323 12.7462 6.45772 12.71 8.02139Z" fill="#F0F0F0"/>
<path d="M12.2142 10.0525C11.8255 9.82742 11.4296 9.96749 11.2659 10.1886L10.9236 10.6317C10.7497 10.8567 10.4247 10.8268 10.4247 10.8268C8.05282 10.1996 7.41854 7.7176 7.41854 7.7176C7.41854 7.7176 7.38943 7.38158 7.60662 7.20137L8.03472 6.84724C8.24877 6.67726 8.38413 6.26804 8.16614 5.86591C7.5838 4.81376 7.19269 4.45098 6.99359 4.1724C6.78426 3.91034 6.46948 3.85132 6.14211 4.02839H6.13503C5.45432 4.42658 4.70908 5.17182 4.94752 5.9391C5.35438 6.74808 6.10198 9.32692 8.48486 11.2754C9.60469 12.1969 11.3769 13.1413 12.1292 13.3592L12.1363 13.3703C12.8776 13.6174 13.5985 12.843 13.9833 12.1418V12.1363C14.154 11.7972 14.0974 11.4761 13.8479 11.266C13.4056 10.8347 12.7383 10.3586 12.2142 10.0525Z" fill="#F0F0F0"/>
<path d="M10.3633 6.37744C11.1196 6.42151 11.4863 6.81656 11.5256 7.6279C11.5398 7.94505 12.0002 7.92301 11.986 7.60587C11.9356 6.54664 11.3832 5.95642 10.3885 5.90134C10.0855 5.88324 10.0572 6.35934 10.3633 6.37744Z" fill="#F0F0F0"/>
</g>
<defs>
<clipPath id="clip0">
<rect width="18.8868" height="18.8868" fill="white"/>
</clipPath>
</defs>
</svg>
