<svg width="19" height="19" viewBox="0 0 19 19" fill="none" xmlns="http://www.w3.org/2000/svg">
<g clip-path="url(#clip0)">
<path d="M13.7771 11.2589L13.77 11.3179C12.0395 10.4554 11.8585 10.3405 11.635 10.6757C11.48 10.9079 11.0283 11.4344 10.8922 11.5902C10.7544 11.7436 10.6175 11.7554 10.3838 11.6492C10.1477 11.5312 9.38988 11.2833 8.49275 10.4806C7.79394 9.85496 7.32492 9.08768 7.18642 8.8516C6.95584 8.4534 7.43824 8.39674 7.87736 7.56572C7.95605 7.40046 7.91592 7.27062 7.85769 7.15336C7.79866 7.03532 7.32886 5.8785 7.13212 5.41735C6.94325 4.95777 6.74887 5.01601 6.60329 5.01601C6.15001 4.97666 5.8187 4.98296 5.52674 5.28672C4.25661 6.68277 4.57689 8.12288 5.66367 9.65429C7.79945 12.4495 8.93738 12.9642 11.0181 13.6787C11.58 13.8574 12.0923 13.8322 12.4975 13.774C12.9492 13.7024 13.8881 13.2066 14.084 12.6518C14.2847 12.097 14.2847 11.6366 14.2257 11.5304C14.1674 11.4241 14.0132 11.3651 13.7771 11.2589Z" fill="#F0F0F0"/>
<path d="M16.1482 2.71372C10.0973 -3.13567 0.0834166 1.10677 0.0794819 9.35872C0.0794819 11.0082 0.511517 12.6167 1.33467 14.0371L0 18.8863L4.98532 17.5863C11.2062 20.9465 18.8836 16.4845 18.8868 9.36344C18.8868 6.86409 17.911 4.5119 16.1364 2.74441L16.1482 2.71372ZM17.3145 9.33747C17.3097 15.3443 10.7159 19.0956 5.50078 16.0297L5.21747 15.8613L2.26641 16.6286L3.0573 13.7601L2.86922 13.465C-0.376162 8.2987 3.3524 1.54667 9.50005 1.54667C11.5886 1.54667 13.5489 2.36117 15.0252 3.8367C16.5008 5.29964 17.3145 7.25993 17.3145 9.33747Z" fill="#F0F0F0"/>
</g>
<defs>
<clipPath id="clip0">
<rect width="18.8868" height="18.8868" fill="white"/>
</clipPath>
</defs>
</svg>
