<svg width="62" height="62" viewBox="0 0 62 62" fill="none" xmlns="http://www.w3.org/2000/svg">
<circle cx="31" cy="31" r="31" fill="white"/>
<path d="M40.0091 22.0435L39.0952 22.4012C38.2607 22.7191 37.5056 23.1959 36.8897 23.8317L34.6048 26.0968L23.8557 23.9708C23.5378 23.9112 23.2001 24.0106 22.9617 24.249L22.4252 24.7854C22.3457 24.8649 22.3656 25.0239 22.4649 25.0835L31.247 29.5341L27.0745 34.1635L22.8822 33.0509C22.7431 33.0111 22.5841 33.0509 22.4848 33.1502L22.0477 33.5873C21.9682 33.6668 21.9881 33.8258 22.1073 33.9052L25.8824 36.1306L25.7632 36.5875C25.6837 36.9253 25.9817 37.2233 26.3195 37.1439L26.7765 37.0247L29.0018 40.7997C29.0614 40.9189 29.2203 40.9388 29.3197 40.8395L29.7568 40.4024C29.8561 40.303 29.8959 40.1441 29.8561 40.005L28.7634 35.7928L33.3928 31.6203L37.8434 40.4024C37.903 40.5216 38.0421 40.5414 38.1414 40.4421L38.6779 39.9056C38.9163 39.6672 39.0157 39.3294 38.9561 39.0115L36.7904 28.2824L39.0753 25.9974C39.6912 25.3815 40.1879 24.6265 40.5058 23.792L40.8635 22.878C41.0423 22.3614 40.5257 21.8449 40.0091 22.0435Z" fill="#842990"/>
</svg>
