<svg width="62" height="62" viewBox="0 0 62 62" fill="none" xmlns="http://www.w3.org/2000/svg">
<circle cx="31" cy="31" r="31" fill="white"/>
<path d="M27.0729 30.5752H34.9281C35.0236 30.5752 35.1151 30.5373 35.1826 30.4698C35.2502 30.4022 35.2881 30.3107 35.2881 30.2152V22.36C35.2881 22.2645 35.2502 22.173 35.1826 22.1054C35.1151 22.0379 35.0236 22 34.9281 22H27.0729C26.9774 22 26.8858 22.0379 26.8183 22.1054C26.7508 22.173 26.7129 22.2645 26.7129 22.36V30.2152C26.7129 30.3107 26.7508 30.4022 26.8183 30.4698C26.8858 30.5373 26.9774 30.5752 27.0729 30.5752ZM28.2393 25.3912C28.2637 25.316 28.3122 25.251 28.3772 25.2061C28.4423 25.1612 28.5203 25.1389 28.5993 25.1428H30.1833L30.6405 23.6344C30.6642 23.5624 30.71 23.4997 30.7714 23.4552C30.8328 23.4107 30.9067 23.3868 30.9825 23.3868C31.0583 23.3868 31.1322 23.4107 31.1936 23.4552C31.255 23.4997 31.3008 23.5624 31.3245 23.6344L31.8141 25.1428H33.3981C33.4743 25.1425 33.5486 25.1664 33.6103 25.2111C33.6721 25.2557 33.718 25.3188 33.7417 25.3912C33.7653 25.4637 33.7653 25.5417 33.7417 25.6142C33.7181 25.6866 33.6722 25.7497 33.6105 25.7944L32.3289 26.7268L32.8185 28.2352C32.8423 28.3076 32.8426 28.3857 32.8192 28.4583C32.7958 28.5308 32.7499 28.5941 32.6883 28.6389C32.6266 28.6838 32.5523 28.7079 32.4761 28.7078C32.3999 28.7077 32.3256 28.6834 32.2641 28.6384L31.0005 27.7024L29.7189 28.6348C29.6573 28.6798 29.5831 28.7041 29.5069 28.7042C29.4306 28.7043 29.3563 28.6802 29.2947 28.6353C29.233 28.5905 29.1872 28.5272 29.1638 28.4547C29.1404 28.3821 29.1407 28.304 29.1645 28.2316L29.6541 26.7232L28.3725 25.7944C28.3104 25.75 28.2641 25.687 28.2401 25.6145C28.2162 25.5421 28.2159 25.4638 28.2393 25.3912Z" fill="#842990"/>
<path d="M39.639 31.4248H31.7838C31.6884 31.4248 31.5968 31.4627 31.5293 31.5302C31.4618 31.5978 31.4238 31.6893 31.4238 31.7848V39.64C31.4238 39.7355 31.4618 39.8271 31.5293 39.8946C31.5968 39.9621 31.6884 40 31.7838 40H39.639C39.7345 40 39.8261 39.9621 39.8936 39.8946C39.9611 39.8271 39.999 39.7355 39.999 39.64V31.7848C39.999 31.6893 39.9611 31.5978 39.8936 31.5302C39.8261 31.4627 39.7345 31.4248 39.639 31.4248ZM38.379 38.0308C38.3473 38.0857 38.3016 38.1313 38.2466 38.1629C38.1916 38.1945 38.1293 38.2111 38.0658 38.2108H33.3678C33.3045 38.2111 33.2423 38.1946 33.1873 38.1631C33.1324 38.1316 33.0868 38.0862 33.055 38.0314C33.0232 37.9767 33.0065 37.9145 33.0064 37.8512C33.0063 37.7878 33.023 37.7256 33.0546 37.6708L35.4054 33.6028C35.4371 33.5483 35.4825 33.503 35.5371 33.4715C35.5918 33.44 35.6538 33.4234 35.7168 33.4234C35.7799 33.4234 35.8419 33.44 35.8965 33.4715C35.9512 33.503 35.9966 33.5483 36.0282 33.6028L38.379 37.6708C38.4106 37.7255 38.4273 37.7876 38.4273 37.8508C38.4273 37.914 38.4106 37.9761 38.379 38.0308V38.0308Z" fill="#842990"/>
<path d="M30.2152 31.4248H22.36C22.2645 31.4248 22.173 31.4627 22.1054 31.5302C22.0379 31.5978 22 31.6893 22 31.7848V39.64C22 39.7355 22.0379 39.8271 22.1054 39.8946C22.173 39.9621 22.2645 40 22.36 40H30.2152C30.3107 40 30.4022 39.9621 30.4698 39.8946C30.5373 39.8271 30.5752 39.7355 30.5752 39.64V31.7848C30.5752 31.6893 30.5373 31.5978 30.4698 31.5302C30.4022 31.4627 30.3107 31.4248 30.2152 31.4248ZM26.2876 38.4304C25.7499 38.4311 25.224 38.2723 24.7766 37.9741C24.3291 37.6759 23.9802 37.2516 23.7739 36.755C23.5677 36.2584 23.5133 35.7118 23.6178 35.1844C23.7223 34.6569 23.9808 34.1722 24.3608 33.7918C24.7408 33.4113 25.2251 33.1521 25.7524 33.0469C26.2798 32.9417 26.8264 32.9953 27.3233 33.201C27.8202 33.4066 28.2449 33.7549 28.5437 34.202C28.8425 34.649 29.002 35.1747 29.002 35.7124C29.002 36.4326 28.7161 37.1234 28.2072 37.633C27.6982 38.1427 27.0078 38.4295 26.2876 38.4304V38.4304Z" fill="#842990"/>
</svg>
