<svg width="62" height="62" viewBox="0 0 62 62" fill="none" xmlns="http://www.w3.org/2000/svg">
<circle cx="31" cy="31" r="31" fill="white"/>
<path d="M30.3324 36.037C31.179 36.037 31.8562 36.7143 31.8562 37.4762C31.8562 38.3228 31.179 39 30.3324 39C29.4858 39 28.8086 38.3228 28.8086 37.4762C28.8086 36.7143 29.4858 36.037 30.3324 36.037Z" fill="#842990"/>
<path d="M37.6976 36.037C38.4595 36.037 39.1368 36.7143 39.1368 37.4762C39.1368 38.3228 38.4595 39 37.6976 39C36.8511 39 36.1738 38.3228 36.1738 37.4762C36.1738 36.7143 36.8511 36.037 37.6976 36.037Z" fill="#842990"/>
<path d="M21.6984 24.4392C20.7672 24.4392 20.7672 23 21.6984 23H25L26.1852 26.0476H41L38.9683 33.1587H28.8942L29.2328 34.0053H38.6296C39.5608 34.0053 39.5608 35.4444 38.6296 35.4444H28.3016L24.0688 24.4392H21.6984Z" fill="#842990"/>
</svg>
