<svg width="62" height="62" viewBox="0 0 62 62" fill="none" xmlns="http://www.w3.org/2000/svg">
<circle cx="31" cy="31" r="31" fill="white"/>
<path d="M40.5059 26.4772C40.5059 24.975 39.2472 23.7573 37.6938 23.7573C37.4761 23.7573 37.2649 23.7836 37.0616 23.8288C36.7959 22.49 35.58 21.4782 34.1186 21.4782C33.627 21.4782 33.1642 21.5946 32.7551 21.7973C32.2643 21.3066 31.5775 21 30.816 21C30.0556 21 29.37 21.3055 28.8796 21.7949C28.4257 21.4592 27.8598 21.2574 27.2442 21.2574C25.9758 21.2574 24.9152 22.1047 24.6265 23.245C23.3623 23.6817 22.456 24.8471 22.456 26.2198C22.456 26.7992 22.6199 27.3404 22.9013 27.8073C22.3443 28.3688 22 29.1293 22 29.9691C22 31.6947 23.4462 33.0935 25.2301 33.0935C25.7328 33.0935 26.2068 32.9792 26.6311 32.7812C27.0848 32.9801 27.5873 33.0935 28.1179 33.0935C28.3837 33.0935 28.6423 33.0646 28.8917 33.0121C29.1724 33.488 29.5572 34.0566 29.9551 34.3806C30.6797 34.9703 31.2086 38.4797 30.1671 40H33.5572C33.5572 40 30.9466 36.3609 34.1701 33.0066C34.8593 33.4318 35.6756 33.6821 36.554 33.6821C39.0096 33.6821 41 31.7567 41 29.3811C41 28.5942 40.7777 27.8589 40.3963 27.2242C40.4663 26.9864 40.5059 26.7365 40.5059 26.4772ZM30.3083 33.8345C30.1922 34.0158 29.8589 33.4274 29.5579 32.8014C29.746 32.7223 29.9264 32.6292 30.0962 32.5211C30.2745 33.0729 30.4209 33.6587 30.3083 33.8345ZM31.8445 35.1324C31.4875 35.7562 31.3532 34.3541 31.3041 33.0052C31.5545 33.0608 31.8151 33.0901 32.0823 33.0926C32.148 33.8303 32.129 34.6353 31.8445 35.1324ZM32.7095 33.971C32.5363 34.2683 32.5073 33.7428 32.528 33.0699C32.6785 33.0531 32.8263 33.0273 32.9704 32.9927C32.9387 33.3365 32.8657 33.7031 32.7095 33.971Z" fill="#842990"/>
</svg>
