<svg width="62" height="62" viewBox="0 0 62 62" fill="none" xmlns="http://www.w3.org/2000/svg">
<circle cx="31" cy="31" r="31" fill="white"/>
<path d="M40.6448 27.1437L38.9909 25.4899L40.2342 24.2471C40.3441 24.1373 40.4059 23.9885 40.4059 23.8329C40.4059 23.6773 40.3441 23.5285 40.2342 23.4186L38.5697 21.7541C38.35 21.5344 37.9609 21.5344 37.7411 21.7541L36.4984 22.9974L34.8443 21.3432C34.3867 20.8856 33.6447 20.8856 33.187 21.3432C32.7293 21.8008 32.7293 22.5428 33.187 23.0005L38.9875 28.801C39.4452 29.2586 40.1872 29.2586 40.6448 28.801C41.1024 28.3434 41.1024 27.6014 40.6448 27.1437Z" fill="#842990"/>
<path d="M28.801 38.9994L23.0005 33.1989C22.5428 32.7413 21.8009 32.7413 21.3432 33.1989C20.8856 33.6566 20.8856 34.3986 21.3432 34.8562L22.9973 36.5103L21.7565 37.7506C21.6466 37.8605 21.5848 38.0093 21.5848 38.1649C21.5848 38.3205 21.6466 38.4693 21.7565 38.5792L23.421 40.2432C23.5354 40.3576 23.6854 40.4149 23.8353 40.4149C23.9852 40.4149 24.1351 40.3576 24.2495 40.2432L25.4899 39.0029L27.1437 40.6567C27.6013 41.1144 28.3433 41.1144 28.801 40.6567C29.2587 40.1991 29.2587 39.4571 28.801 38.9994Z" fill="#842990"/>
<path d="M31.5299 27.9724L27.9727 31.5418L30.4586 34.0277L34.0159 30.4583L31.5299 27.9724Z" fill="#842990"/>
<path d="M38.9876 30.4582L31.5298 23.0004C31.0722 22.5428 30.3302 22.5428 29.8726 23.0004C29.4149 23.4581 29.4149 24.2 29.8726 24.6577L37.3304 32.1155C37.788 32.5731 38.53 32.5731 38.9876 32.1155C39.4453 31.6579 39.4453 30.9159 38.9876 30.4582Z" fill="#842990"/>
<path d="M32.1146 37.3422L24.6568 29.8844C24.1991 29.4267 23.4571 29.4267 22.9995 29.8844C22.5418 30.342 22.5418 31.084 22.9995 31.5417L30.4573 38.9994C30.9149 39.4571 31.6569 39.4571 32.1146 38.9994C32.5723 38.5418 32.5723 37.7998 32.1146 37.3422Z" fill="#842990"/>
</svg>
