<svg width="62" height="62" viewBox="0 0 62 62" fill="none" xmlns="http://www.w3.org/2000/svg">
<circle cx="31" cy="31" r="31" fill="white"/>
<path d="M24.2619 23V36.1191C27.1556 36.1034 29.3119 37.682 31.0476 39.1302V25.7143C29.1269 24.1044 26.9679 22.9975 24.2619 23ZM38.7381 23C36.0321 22.9975 33.8731 24.1044 31.9524 25.7143V39.1302C33.6881 37.682 35.8444 36.1035 38.7381 36.1191V23ZM22 24.8095V37.9286L29.9167 39.2857C28.4121 38.1513 26.5142 37.0116 24.2619 37.0238H23.8095C23.5727 37.0238 23.3572 36.8083 23.3571 36.5714V36.1191V25.0004L22 24.8095ZM41 24.8095L39.6429 25.0004V36.1191V36.5714C39.6428 36.8083 39.4273 37.0238 39.1905 37.0238H38.7381C36.4858 37.0116 34.5879 38.1513 33.0833 39.2857L41 37.9286V24.8095Z" fill="#842990"/>
</svg>
